<svg xmlns="http://www.w3.org/2000/svg" viewBox="0 0 800 1000" preserveAspectRatio="xMidYMid slice">
  <defs>
    <linearGradient id="inm-bg" x1="0%" y1="0%" x2="100%" y2="100%">
      <stop offset="0%" stop-color="#fafbfc"/>
      <stop offset="50%" stop-color="#f5f7f9"/>
      <stop offset="100%" stop-color="#eef1f4"/>
    </linearGradient>
    <radialGradient id="inm-orb1" cx="50%" cy="50%" r="50%">
      <stop offset="0%" stop-color="#7fb069" stop-opacity="0.08"/>
      <stop offset="100%" stop-color="#7fb069" stop-opacity="0"/>
    </radialGradient>
    <radialGradient id="inm-orb2" cx="50%" cy="50%" r="50%">
      <stop offset="0%" stop-color="#5a7d5a" stop-opacity="0.06"/>
      <stop offset="100%" stop-color="#5a7d5a" stop-opacity="0"/>
    </radialGradient>
    <filter id="inm-shadow" x="-20%" y="-20%" width="140%" height="140%">
      <feDropShadow dx="0" dy="3" stdDeviation="5" flood-color="#2d3436" flood-opacity="0.06"/>
    </filter>
  </defs>
  <rect width="800" height="1000" fill="url(#inm-bg)"/>
  <circle cx="150" cy="850" r="300" fill="url(#inm-orb1)"/>
  <circle cx="700" cy="200" r="250" fill="url(#inm-orb2)"/>
  <circle cx="400" cy="950" r="200" fill="url(#inm-orb1)" opacity="0.6"/>
  <g opacity="0.5">
    <g transform="rotate(-8 140 280)">
      <rect x="90" y="220" width="100" height="140" rx="8" fill="#ffffff" filter="url(#inm-shadow)"/>
      <rect x="105" y="245" width="75" height="7" rx="3.5" fill="#5a7d5a" opacity="0.35"/>
      <rect x="105" y="260" width="50" height="5" rx="2.5" fill="#7fb069" opacity="0.3"/>
      <rect x="105" y="272" width="65" height="5" rx="2.5" fill="#7fb069" opacity="0.25"/>
      <rect x="105" y="284" width="42" height="5" rx="2.5" fill="#7fb069" opacity="0.2"/>
      <rect x="105" y="298" width="75" height="5" rx="2.5" fill="#7fb069" opacity="0.15"/>
      <rect x="105" y="310" width="58" height="5" rx="2.5" fill="#7fb069" opacity="0.15"/>
      <rect x="105" y="322" width="35" height="5" rx="2.5" fill="#7fb069" opacity="0.15"/>
      <rect x="105" y="340" width="75" height="14" rx="3" fill="#5a7d5a" opacity="0.1"/>
    </g>
    <g transform="rotate(6 660 320)">
      <rect x="610" y="260" width="110" height="150" rx="8" fill="#ffffff" filter="url(#inm-shadow)"/>
      <rect x="625" y="288" width="80" height="8" rx="4" fill="#5a7d5a" opacity="0.35"/>
      <rect x="625" y="304" width="55" height="5" rx="2.5" fill="#7fb069" opacity="0.3"/>
      <rect x="625" y="316" width="70" height="5" rx="2.5" fill="#7fb069" opacity="0.25"/>
      <rect x="625" y="328" width="48" height="5" rx="2.5" fill="#7fb069" opacity="0.2"/>
      <rect x="625" y="340" width="62" height="5" rx="2.5" fill="#7fb069" opacity="0.18"/>
      <rect x="625" y="356" width="80" height="16" rx="4" fill="#5a7d5a" opacity="0.1"/>
      <rect x="625" y="380" width="60" height="5" rx="2.5" fill="#7fb069" opacity="0.12"/>
    </g>
    <g transform="rotate(-5 360 620)">
      <rect x="310" y="570" width="90" height="120" rx="6" fill="#ffffff" filter="url(#inm-shadow)"/>
      <rect x="323" y="590" width="65" height="7" rx="3.5" fill="#5a7d5a" opacity="0.3"/>
      <rect x="323" y="605" width="42" height="4" rx="2" fill="#7fb069" opacity="0.25"/>
      <rect x="323" y="615" width="55" height="4" rx="2" fill="#7fb069" opacity="0.2"/>
      <rect x="323" y="625" width="38" height="4" rx="2" fill="#7fb069" opacity="0.15"/>
      <rect x="323" y="638" width="65" height="12" rx="3" fill="#5a7d5a" opacity="0.08"/>
    </g>
    <g transform="rotate(4 580 720)">
      <rect x="530" y="670" width="95" height="130" rx="6" fill="#ffffff" filter="url(#inm-shadow)"/>
      <rect x="543" y="692" width="70" height="7" rx="3.5" fill="#5a7d5a" opacity="0.3"/>
      <rect x="543" y="708" width="48" height="5" rx="2.5" fill="#7fb069" opacity="0.25"/>
      <rect x="543" y="720" width="62" height="5" rx="2.5" fill="#7fb069" opacity="0.2"/>
      <rect x="543" y="732" width="44" height="5" rx="2.5" fill="#7fb069" opacity="0.15"/>
      <rect x="543" y="746" width="70" height="13" rx="3" fill="#5a7d5a" opacity="0.08"/>
    </g>
  </g>
  <g stroke="#5a7d5a" stroke-width="0.7" fill="none" opacity="0.08">
    <line x1="160" y1="0" x2="160" y2="1000"/>
    <line x1="320" y1="0" x2="320" y2="1000"/>
    <line x1="480" y1="0" x2="480" y2="1000"/>
    <line x1="640" y1="0" x2="640" y2="1000"/>
    <line x1="0" y1="250" x2="800" y2="250"/>
    <line x1="0" y1="500" x2="800" y2="500"/>
    <line x1="0" y1="750" x2="800" y2="750"/>
  </g>
  <g fill="#7fb069" opacity="0.12">
    <rect x="340" y="180" width="10" height="70" rx="2"/>
    <rect x="356" y="150" width="10" height="100" rx="2"/>
    <rect x="372" y="200" width="10" height="50" rx="2"/>
    <rect x="388" y="130" width="10" height="120" rx="2"/>
    <rect x="404" y="170" width="10" height="80" rx="2"/>
  </g>
  <g fill="#5a7d5a" opacity="0.1">
    <rect x="480" y="380" width="8" height="45" rx="2"/>
    <rect x="494" y="350" width="8" height="75" rx="2"/>
    <rect x="508" y="400" width="8" height="25" rx="2"/>
    <rect x="522" y="330" width="8" height="95" rx="2"/>
    <rect x="536" y="370" width="8" height="55" rx="2"/>
  </g>
  <g stroke="#5a7d5a" stroke-width="1" fill="none" opacity="0.1" stroke-linecap="round">
    <line x1="380" y1="380" x2="460" y2="300"/>
    <line x1="396" y1="380" x2="476" y2="300"/>
    <line x1="412" y1="380" x2="492" y2="300"/>
    <line x1="428" y1="380" x2="508" y2="300"/>
    <line x1="444" y1="380" x2="524" y2="300"/>
  </g>
  <g fill="#7fb069" opacity="0.15">
    <circle cx="300" cy="320" r="18"/>
    <circle cx="340" cy="300" r="12"/>
    <circle cx="370" cy="330" r="9"/>
    <circle cx="600" cy="360" r="16"/>
    <circle cx="640" cy="340" r="11"/>
    <circle cx="670" cy="370" r="7"/>
  </g>
  <g fill="#5a7d5a" opacity="0.06">
    <text x="400" y="220" font-family="Georgia, serif" font-size="100" font-weight="bold">"</text>
    <text x="480" y="520" font-family="Georgia, serif" font-size="85" font-weight="bold">"</text>
  </g>
  <g fill="#5a7d5a" opacity="0.1">
    <rect x="360" y="120" width="7" height="7"/>
    <rect x="374" y="120" width="7" height="7"/>
    <rect x="360" y="134" width="7" height="7"/>
    <rect x="374" y="134" width="7" height="7"/>
    <rect x="388" y="120" width="7" height="7"/>
    <rect x="388" y="134" width="7" height="7"/>
  </g>
  <g fill="#7fb069" opacity="0.12">
    <rect x="460" y="440" width="5" height="5"/>
    <rect x="470" y="440" width="5" height="5"/>
    <rect x="480" y="440" width="5" height="5"/>
    <rect x="460" y="450" width="5" height="5"/>
    <rect x="470" y="450" width="5" height="5"/>
    <rect x="480" y="450" width="5" height="5"/>
    <rect x="460" y="460" width="5" height="5"/>
    <rect x="470" y="460" width="5" height="5"/>
    <rect x="480" y="460" width="5" height="5"/>
  </g>
  <path d="M 50 500 Q 250 450 450 500 T 750 480" stroke="#5a7d5a" stroke-width="1.5" fill="none" opacity="0.1" stroke-dasharray="10 8" stroke-linecap="round"/>
  <g fill="#5a7d5a" opacity="0.18">
    <circle cx="60" cy="120" r="2.5"/>
    <circle cx="220" cy="90" r="2"/>
    <circle cx="380" cy="250" r="3"/>
    <circle cx="560" cy="100" r="2"/>
    <circle cx="660" cy="300" r="2.5"/>
    <circle cx="760" cy="180" r="2"/>
    <circle cx="140" cy="650" r="3"/>
    <circle cx="320" cy="580" r="2"/>
    <circle cx="460" cy="720" r="2.5"/>
    <circle cx="620" cy="680" r="2"/>
    <circle cx="760" cy="550" r="2.5"/>
  </g>
  <g stroke="#5a7d5a" stroke-width="1.2" fill="none" opacity="0.1">
    <path d="M 40 60 L 40 95 L 75 95"/>
    <path d="M 760 940 L 760 905 L 725 905"/>
  </g>
</svg>