<svg xmlns="http://www.w3.org/2000/svg" viewBox="0 0 800 1000" preserveAspectRatio="xMidYMid slice">
  <defs>
    <linearGradient id="ldm-bg" x1="0%" y1="0%" x2="100%" y2="100%">
      <stop offset="0%" stop-color="#0c1020"/>
      <stop offset="50%" stop-color="#0f1430"/>
      <stop offset="100%" stop-color="#13183d"/>
    </linearGradient>
    <radialGradient id="ldm-orb1" cx="50%" cy="50%" r="50%">
      <stop offset="0%" stop-color="#6366f1" stop-opacity="0.10"/>
      <stop offset="100%" stop-color="#6366f1" stop-opacity="0"/>
    </radialGradient>
    <radialGradient id="ldm-orb2" cx="50%" cy="50%" r="50%">
      <stop offset="0%" stop-color="#2251ff" stop-opacity="0.08"/>
      <stop offset="100%" stop-color="#2251ff" stop-opacity="0"/>
    </radialGradient>
    <radialGradient id="ldm-orb3" cx="50%" cy="50%" r="50%">
      <stop offset="0%" stop-color="#4d7fff" stop-opacity="0.06"/>
      <stop offset="100%" stop-color="#4d7fff" stop-opacity="0"/>
    </radialGradient>
    <radialGradient id="ldm-halo" cx="50%" cy="50%" r="50%">
      <stop offset="0%" stop-color="#c5a059" stop-opacity="0.18"/>
      <stop offset="100%" stop-color="#c5a059" stop-opacity="0"/>
    </radialGradient>
  </defs>
  <rect width="800" height="1000" fill="url(#ldm-bg)"/>
  <circle cx="600" cy="350" r="420" fill="url(#ldm-orb1)"/>
  <circle cx="700" cy="650" r="350" fill="url(#ldm-orb2)"/>
  <circle cx="200" cy="750" r="300" fill="url(#ldm-orb3)"/>
  <g fill="none" stroke="#6366f1" stroke-width="1" opacity="0.10" stroke-linecap="round">
    <path d="M 450 1000 A 250 250 0 0 1 700 750"/>
    <path d="M 400 1000 A 320 320 0 0 1 720 680"/>
    <path d="M 350 1000 A 390 390 0 0 1 740 610"/>
    <path d="M 300 1000 A 460 460 0 0 1 760 540"/>
  </g>
  <g fill="none" stroke="#2251ff" stroke-width="0.8" opacity="0.08" stroke-linecap="round">
    <path d="M 500 1000 A 200 200 0 0 1 700 800"/>
    <path d="M 550 1000 A 150 150 0 0 1 700 850"/>
    <path d="M 600 1000 A 100 100 0 0 1 700 900"/>
  </g>
  <g stroke="#4d7fff" stroke-width="0.6" opacity="0.09" stroke-linecap="round">
    <line x1="0" y1="850" x2="300" y2="650"/>
    <line x1="0" y1="920" x2="350" y2="680"/>
    <line x1="0" y1="1000" x2="400" y2="700"/>
    <line x1="60" y1="1000" x2="420" y2="720"/>
    <line x1="120" y1="1000" x2="440" y2="740"/>
  </g>
  <g stroke="#2251ff" stroke-width="0.8" opacity="0.07" stroke-linecap="round">
    <line x1="0" y1="780" x2="280" y2="580"/>
    <line x1="0" y1="720" x2="240" y2="520"/>
    <line x1="30" y1="1000" x2="350" y2="720"/>
  </g>
  <g stroke="#6366f1" stroke-width="0.4" opacity="0.05">
    <line x1="500" y1="0" x2="500" y2="450"/>
    <line x1="540" y1="0" x2="540" y2="480"/>
    <line x1="580" y1="0" x2="580" y2="510"/>
    <line x1="620" y1="0" x2="620" y2="480"/>
    <line x1="660" y1="0" x2="660" y2="450"/>
    <line x1="700" y1="0" x2="700" y2="400"/>
    <line x1="740" y1="0" x2="740" y2="330"/>
    <line x1="500" y1="60" x2="720" y2="60"/>
    <line x1="500" y1="120" x2="700" y2="120"/>
    <line x1="500" y1="180" x2="660" y2="180"/>
    <line x1="500" y1="240" x2="620" y2="240"/>
    <line x1="500" y1="300" x2="560" y2="300"/>
  </g>
  <circle cx="650" cy="160" r="50" fill="url(#ldm-halo)"/>
  <circle cx="650" cy="160" r="3.5" fill="#c5a059" opacity="0.5"/>
  <circle cx="650" cy="160" r="10" fill="none" stroke="#c5a059" stroke-width="0.6" opacity="0.2"/>
  <circle cx="650" cy="160" r="18" fill="none" stroke="#c5a059" stroke-width="0.4" opacity="0.1"/>
  <circle cx="540" cy="380" r="38" fill="url(#ldm-orb2)"/>
  <circle cx="540" cy="380" r="3" fill="#2251ff" opacity="0.4"/>
  <circle cx="540" cy="380" r="8" fill="none" stroke="#2251ff" stroke-width="0.5" opacity="0.15"/>
  <circle cx="620" cy="500" r="34" fill="url(#ldm-orb3)"/>
  <circle cx="620" cy="500" r="2.5" fill="#4d7fff" opacity="0.35"/>
  <circle cx="620" cy="500" r="7" fill="none" stroke="#4d7fff" stroke-width="0.5" opacity="0.12"/>
  <circle cx="700" cy="320" r="30" fill="url(#ldm-orb1)"/>
  <circle cx="700" cy="320" r="2" fill="#6366f1" opacity="0.4"/>
  <circle cx="560" cy="260" r="1.8" fill="#2251ff" opacity="0.25"/>
  <circle cx="620" cy="420" r="1.8" fill="#4d7fff" opacity="0.2"/>
  <circle cx="680" cy="460" r="1.5" fill="#6366f1" opacity="0.3"/>
  <circle cx="520" cy="460" r="1.5" fill="#2251ff" opacity="0.2"/>
  <g stroke="#2251ff" stroke-width="0.5" opacity="0.10" stroke-linecap="round">
    <line x1="540" y1="380" x2="560" y2="260"/>
    <line x1="560" y1="260" x2="650" y2="160"/>
    <line x1="540" y1="380" x2="620" y2="500"/>
    <line x1="620" y1="500" x2="680" y2="460"/>
    <line x1="650" y1="160" x2="700" y2="320"/>
    <line x1="700" y1="320" x2="620" y2="420"/>
  </g>
  <g opacity="0.15">
    <circle cx="120" cy="250" r="1.5" fill="#6366f1"/>
    <circle cx="200" cy="180" r="1" fill="#2251ff"/>
    <circle cx="160" cy="320" r="1.2" fill="#4d7fff"/>
    <circle cx="260" cy="270" r="1" fill="#6366f1"/>
    <circle cx="340" cy="210" r="1.5" fill="#2251ff"/>
    <circle cx="400" cy="320" r="1" fill="#4d7fff"/>
    <circle cx="480" cy="260" r="1.2" fill="#6366f1"/>
    <circle cx="560" cy="350" r="1" fill="#2251ff"/>
    <circle cx="620" cy="220" r="1.5" fill="#4d7fff"/>
    <circle cx="720" cy="280" r="1.2" fill="#2251ff"/>
    <circle cx="760" cy="450" r="1" fill="#4d7fff"/>
    <circle cx="700" cy="520" r="1.5" fill="#6366f1"/>
    <circle cx="640" cy="600" r="1" fill="#2251ff"/>
  </g>
  <g fill="none" stroke="#6366f1" stroke-width="0.6" opacity="0.08">
    <circle cx="540" cy="380" r="22"/>
    <circle cx="540" cy="380" r="34"/>
    <circle cx="620" cy="500" r="20"/>
    <circle cx="620" cy="500" r="30"/>
  </g>
  <line x1="0" y1="960" x2="350" y2="960" stroke="#2251ff" stroke-width="0.5" opacity="0.06" stroke-linecap="round"/>
  <line x1="450" y1="960" x2="650" y2="960" stroke="#4d7fff" stroke-width="0.4" opacity="0.05" stroke-linecap="round"/>
</svg>