<svg xmlns="http://www.w3.org/2000/svg" viewBox="0 0 800 1000" preserveAspectRatio="xMidYMid slice">
  <defs>
    <radialGradient id="fm-orb" cx="50%" cy="50%" r="50%">
      <stop offset="0%" stop-color="#e8f0ff" stop-opacity="1"/>
      <stop offset="100%" stop-color="#ffffff" stop-opacity="0"/>
    </radialGradient>
    <linearGradient id="fm-line" x1="0%" y1="0%" x2="100%" y2="0%">
      <stop offset="0%" stop-color="#4d7fff" stop-opacity="0"/>
      <stop offset="50%" stop-color="#4d7fff" stop-opacity="0.25"/>
      <stop offset="100%" stop-color="#4d7fff" stop-opacity="0"/>
    </linearGradient>
  </defs>
  <rect width="800" height="1000" fill="#ffffff"/>
  <circle cx="600" cy="250" r="420" fill="url(#fm-orb)"/>
  <circle cx="180" cy="800" r="380" fill="url(#fm-orb)"/>
  <g stroke="#c8d8f5" stroke-width="0.8" fill="none">
    <line x1="0" y1="200" x2="800" y2="200"/>
    <line x1="0" y1="400" x2="800" y2="400"/>
    <line x1="0" y1="600" x2="800" y2="600"/>
    <line x1="0" y1="800" x2="800" y2="800"/>
  </g>
  <g stroke="#c8d8f5" stroke-width="0.8" fill="none">
    <line x1="160" y1="0" x2="160" y2="1000"/>
    <line x1="320" y1="0" x2="320" y2="1000"/>
    <line x1="480" y1="0" x2="480" y2="1000"/>
    <line x1="640" y1="0" x2="640" y2="1000"/>
  </g>
  <g fill="none" stroke="#d6e3fa" stroke-width="1">
    <circle cx="140" cy="280" r="65"/>
    <circle cx="140" cy="280" r="100"/>
    <circle cx="680" cy="720" r="80"/>
    <circle cx="680" cy="720" r="125"/>
  </g>
  <path d="M -60 850 Q 260 550 620 850 T 900 850" fill="none" stroke="#d6e3fa" stroke-width="1.2"/>
  <path d="M -60 720 Q 260 420 620 720 T 900 720" fill="none" stroke="#e8f0ff" stroke-width="1"/>
  <path d="M -60 950 Q 260 650 620 950 T 900 950" fill="none" stroke="#e8f0ff" stroke-width="1"/>
  <path d="M 500 -60 Q 700 400 900 860" fill="none" stroke="#d6e3fa" stroke-width="1"/>
  <path d="M 560 -60 Q 760 400 960 860" fill="none" stroke="#e8f0ff" stroke-width="0.8"/>
  <g fill="#a8c2f0">
    <circle cx="200" cy="180" r="3"/>
    <circle cx="250" cy="140" r="2"/>
    <circle cx="280" cy="220" r="2.5"/>
    <circle cx="320" cy="160" r="2"/>
    <circle cx="360" cy="200" r="3"/>
    <circle cx="420" cy="320" r="2"/>
    <circle cx="460" cy="360" r="2.5"/>
    <circle cx="500" cy="300" r="2"/>
    <circle cx="600" cy="150" r="3"/>
    <circle cx="640" cy="190" r="2"/>
    <circle cx="680" cy="130" r="2.5"/>
    <circle cx="720" cy="280" r="2"/>
    <circle cx="760" cy="320" r="3"/>
    <circle cx="180" cy="420" r="2.5"/>
    <circle cx="220" cy="460" r="2"/>
    <circle cx="280" cy="380" r="3"/>
    <circle cx="320" cy="420" r="2"/>
    <circle cx="380" cy="480" r="2.5"/>
  </g>
  <g stroke="#c8d8f5" stroke-width="0.6" fill="none">
    <line x1="200" y1="180" x2="250" y2="140"/>
    <line x1="250" y1="140" x2="280" y2="220"/>
    <line x1="280" y1="220" x2="320" y2="160"/>
    <line x1="320" y1="160" x2="360" y2="200"/>
    <line x1="600" y1="150" x2="640" y2="190"/>
    <line x1="640" y1="190" x2="680" y2="130"/>
    <line x1="720" y1="280" x2="760" y2="320"/>
  </g>
  <g fill="none" stroke="#c8d8f5" stroke-width="0.9">
    <circle cx="240" cy="550" r="30"/>
    <circle cx="620" cy="480" r="38"/>
    <circle cx="440" cy="820" r="26"/>
  </g>
  <g stroke="#c8d8f5" stroke-width="1" fill="none">
    <path d="M 50 50 L 50 85 L 85 85"/>
    <path d="M 750 950 L 750 915 L 715 915"/>
  </g>
  <g fill="none" stroke="#d6e3fa" stroke-width="1" opacity="0.7">
    <rect x="620" y="100" width="45" height="45" transform="rotate(15 642 122)"/>
    <rect x="700" y="160" width="35" height="35" transform="rotate(-10 717 177)"/>
    <rect x="720" y="80" width="28" height="28" transform="rotate(25 734 94)"/>
  </g>
  <g fill="none" stroke="#d6e3fa" stroke-width="0.9" opacity="0.6">
    <rect x="60" y="650" width="40" height="40" transform="rotate(-12 80 670)"/>
    <rect x="120" y="720" width="28" height="28" transform="rotate(18 134 734)"/>
  </g>
  <path d="M 120 480 Q 320 380 520 480 T 800 480" fill="none" stroke="#c8d8f5" stroke-width="0.8" stroke-dasharray="6 6"/>
</svg>