<svg xmlns="http://www.w3.org/2000/svg" viewBox="0 0 800 1000" preserveAspectRatio="xMidYMid slice">
  <defs>
    <linearGradient id="vgm-bg" x1="0%" y1="0%" x2="100%" y2="100%">
      <stop offset="0%" stop-color="#0f172a"/>
      <stop offset="45%" stop-color="#1e293b"/>
      <stop offset="100%" stop-color="#0c1420"/>
    </linearGradient>
    <radialGradient id="vgm-emerald" cx="50%" cy="50%" r="50%">
      <stop offset="0%" stop-color="#2251ff" stop-opacity="0.15"/>
      <stop offset="100%" stop-color="#2251ff" stop-opacity="0"/>
    </radialGradient>
    <radialGradient id="vgm-cyan" cx="50%" cy="50%" r="50%">
      <stop offset="0%" stop-color="#4d7fff" stop-opacity="0.12"/>
      <stop offset="100%" stop-color="#4d7fff" stop-opacity="0"/>
    </radialGradient>
    <linearGradient id="vgm-line" x1="0%" y1="0%" x2="100%" y2="0%">
      <stop offset="0%" stop-color="#2251ff" stop-opacity="0"/>
      <stop offset="20%" stop-color="#2251ff" stop-opacity="0.5"/>
      <stop offset="80%" stop-color="#4d7fff" stop-opacity="0.5"/>
      <stop offset="100%" stop-color="#4d7fff" stop-opacity="0"/>
    </linearGradient>
    <linearGradient id="vgm-bar" x1="0%" y1="0%" x2="0%" y2="100%">
      <stop offset="0%" stop-color="#2251ff" stop-opacity="0.5"/>
      <stop offset="100%" stop-color="#2251ff" stop-opacity="0.15"/>
    </linearGradient>
  </defs>
  <rect width="800" height="1000" fill="url(#vgm-bg)"/>
  <circle cx="200" cy="800" r="350" fill="url(#vgm-emerald)"/>
  <circle cx="680" cy="200" r="300" fill="url(#vgm-cyan)"/>
  <circle cx="400" cy="150" r="240" fill="url(#vgm-emerald)" opacity="0.6"/>
  <g fill="none" stroke-linecap="round" stroke-linejoin="round">
    <path d="M 0 780 Q 180 720 320 620 T 600 480 L 800 360" stroke="url(#vgm-line)" stroke-width="3" opacity="0.6"/>
    <path d="M 0 820 Q 180 760 320 660 T 600 520 L 800 400" stroke="url(#vgm-line)" stroke-width="2" opacity="0.35"/>
    <path d="M 80 620 Q 280 560 460 460 T 720 280" stroke="#2251ff" stroke-width="2.5" opacity="0.25"/>
    <path d="M 80 660 Q 280 600 460 500 T 720 320" stroke="#4d7fff" stroke-width="1.5" opacity="0.2"/>
    <path d="M 40 880 Q 240 820 420 700 T 680 520 L 800 420" stroke="#2251ff" stroke-width="2" opacity="0.2"/>
  </g>
  <g fill="url(#vgm-bar)" stroke="#2251ff" stroke-width="0.8" opacity="0.4">
    <rect x="100" y="620" width="24" height="100" rx="2"/>
    <rect x="136" y="580" width="24" height="140" rx="2"/>
    <rect x="172" y="540" width="24" height="180" rx="2"/>
    <rect x="208" y="600" width="24" height="120" rx="2"/>
    <rect x="244" y="500" width="24" height="220" rx="2"/>
    <rect x="280" y="460" width="24" height="260" rx="2"/>
  </g>
  <g fill="url(#vgm-bar)" stroke="#4d7fff" stroke-width="0.7" opacity="0.3">
    <rect x="580" y="680" width="18" height="70" rx="2"/>
    <rect x="604" y="640" width="18" height="110" rx="2"/>
    <rect x="628" y="600" width="18" height="150" rx="2"/>
    <rect x="652" y="660" width="18" height="90" rx="2"/>
    <rect x="676" y="580" width="18" height="170" rx="2"/>
    <rect x="700" y="540" width="18" height="210" rx="2"/>
  </g>
  <g fill="#2251ff" opacity="0.4">
    <polygon points="800,360 788,355 788,365"/>
    <polygon points="720,280 708,275 708,285"/>
    <polygon points="800,420 788,415 788,425"/>
  </g>
  <g fill="#2251ff" opacity="0.35">
    <circle cx="320" cy="620" r="5"/>
    <circle cx="600" cy="480" r="6"/>
    <circle cx="460" cy="460" r="4"/>
    <circle cx="720" cy="280" r="5"/>
  </g>
  <g fill="none" stroke="#2251ff" stroke-width="1" opacity="0.15">
    <circle cx="320" cy="620" r="14"/>
    <circle cx="600" cy="480" r="17"/>
    <circle cx="460" cy="460" r="13"/>
  </g>
  <g fill="#1e293b" stroke="#2251ff" stroke-width="0.6" opacity="0.3">
    <rect x="380" y="280" width="28" height="28" transform="rotate(20 394 294)"/>
    <rect x="440" y="320" width="22" height="22" transform="rotate(-15 451 331)"/>
    <rect x="640" y="520" width="26" height="26" transform="rotate(25 653 533)"/>
    <rect x="700" y="560" width="20" height="20" transform="rotate(-10 710 570)"/>
  </g>
  <g stroke="#2251ff" stroke-width="0.4" fill="none" opacity="0.06">
    <line x1="0" y1="300" x2="800" y2="300"/>
    <line x1="0" y1="450" x2="800" y2="450"/>
    <line x1="0" y1="600" x2="800" y2="600"/>
    <line x1="0" y1="750" x2="800" y2="750"/>
    <line x1="200" y1="0" x2="200" y2="1000"/>
    <line x1="400" y1="0" x2="400" y2="1000"/>
    <line x1="600" y1="0" x2="600" y2="1000"/>
  </g>
  <path d="M 0 720 Q 200 620 400 520 T 800 320" stroke="#2251ff" stroke-width="1" fill="none" opacity="0.1" stroke-dasharray="8 6"/>
  <path d="M 0 820 Q 200 720 400 620 T 800 420" stroke="#4d7fff" stroke-width="1" fill="none" opacity="0.08" stroke-dasharray="8 6"/>
  <g fill="#2251ff" opacity="0.25">
    <circle cx="60" cy="300" r="2.5"/>
    <circle cx="220" cy="180" r="2"/>
    <circle cx="320" cy="550" r="3"/>
    <circle cx="480" cy="220" r="2"/>
    <circle cx="560" cy="600" r="2.5"/>
    <circle cx="700" cy="380" r="3"/>
    <circle cx="760" cy="280" r="2"/>
    <circle cx="140" cy="700" r="3"/>
    <circle cx="380" cy="650" r="2"/>
  </g>
  <g fill="#4d7fff" opacity="0.15">
    <polygon points="280,600 288,608 280,616 272,608"/>
    <polygon points="440,550 450,560 440,570 430,560"/>
    <polygon points="620,480 628,488 620,496 612,488"/>
    <polygon points="740,420 750,430 740,440 730,430"/>
  </g>
  <g fill="none" stroke="#2251ff" stroke-width="0.8" opacity="0.08">
    <circle cx="400" cy="500" r="50"/>
    <circle cx="400" cy="500" r="70"/>
    <circle cx="680" cy="400" r="45"/>
    <circle cx="680" cy="400" r="64"/>
  </g>
</svg>