<svg xmlns="http://www.w3.org/2000/svg" viewBox="0 0 800 520" preserveAspectRatio="xMidYMid slice">
  <defs>
    <filter id="glow" x="-50%" y="-50%" width="200%" height="200%">
      <feGaussianBlur stdDeviation="4" result="blur"/>
      <feMerge><feMergeNode in="blur"/><feMergeNode in="SourceGraphic"/></feMerge>
    </filter>
    <radialGradient id="centerClear" cx="50%" cy="45%" r="55%">
      <stop offset="0%" stop-color="#051c2c" stop-opacity="0.75"/>
      <stop offset="50%" stop-color="#051c2c" stop-opacity="0.35"/>
      <stop offset="100%" stop-color="#051c2c" stop-opacity="0"/>
    </radialGradient>
  </defs>
  <rect width="800" height="520" fill="#051c2c"/>
  <circle cx="586.8" cy="97.3" r="62.22157850290226" fill="#A78BFA" opacity="0.034"/>
  <circle cx="747.5" cy="420.5" r="52.69480317822094" fill="#C084FC" opacity="0.070"/>
  <circle cx="570.2" cy="274.9" r="63.190680277248994" fill="#C084FC" opacity="0.034"/>
  <circle cx="375.2" cy="166.1" r="61.67482557136909" fill="#A78BFA" opacity="0.061"/>
  <circle cx="201.4" cy="460.2" r="50.18737958329833" fill="#C084FC" opacity="0.075"/>
  <circle cx="265.7" cy="117.6" r="77.82041815841598" fill="#A78BFA" opacity="0.030"/>
  <line x1="58.7" y1="309.1" x2="191.0" y2="308.6" stroke="#4d7fff" stroke-width="1" opacity="0.02"/>
  <line x1="58.7" y1="309.1" x2="133.6" y2="271.2" stroke="#4d7fff" stroke-width="1" opacity="0.12"/>
  <line x1="58.7" y1="309.1" x2="108.2" y2="325.8" stroke="#4d7fff" stroke-width="1" opacity="0.19"/>
  <line x1="495.8" y1="159.6" x2="510.7" y2="165.6" stroke="#4d7fff" stroke-width="1" opacity="0.25"/>
  <line x1="495.8" y1="159.6" x2="440.1" y2="74.0" stroke="#4d7fff" stroke-width="1" opacity="0.08"/>
  <line x1="495.8" y1="159.6" x2="502.8" y2="234.0" stroke="#4d7fff" stroke-width="1" opacity="0.11"/>
  <line x1="495.8" y1="159.6" x2="492.8" y2="152.1" stroke="#4d7fff" stroke-width="1" opacity="0.26"/>
  <line x1="495.8" y1="159.6" x2="516.9" y2="38.5" stroke="#4d7fff" stroke-width="1" opacity="0.04"/>
  <line x1="495.8" y1="159.6" x2="587.6" y2="221.5" stroke="#4d7fff" stroke-width="1" opacity="0.06"/>
  <line x1="495.8" y1="159.6" x2="509.1" y2="197.2" stroke="#4d7fff" stroke-width="1" opacity="0.19"/>
  <line x1="495.8" y1="159.6" x2="530.6" y2="279.2" stroke="#4d7fff" stroke-width="1" opacity="0.03"/>
  <line x1="495.8" y1="159.6" x2="522.1" y2="280.9" stroke="#4d7fff" stroke-width="1" opacity="0.03"/>
  <line x1="495.8" y1="159.6" x2="417.1" y2="265.6" stroke="#4d7fff" stroke-width="1" opacity="0.01"/>
  <line x1="186.0" y1="74.6" x2="277.5" y2="114.7" stroke="#4d7fff" stroke-width="1" opacity="0.09"/>
  <line x1="186.0" y1="74.6" x2="208.3" y2="173.4" stroke="#4d7fff" stroke-width="1" opacity="0.08"/>
  <line x1="186.0" y1="74.6" x2="282.4" y2="43.3" stroke="#4d7fff" stroke-width="1" opacity="0.08"/>
  <line x1="186.0" y1="74.6" x2="291.4" y2="18.3" stroke="#4d7fff" stroke-width="1" opacity="0.04"/>
  <line x1="186.0" y1="74.6" x2="85.7" y2="21.4" stroke="#4d7fff" stroke-width="1" opacity="0.06"/>
  <line x1="186.0" y1="74.6" x2="222.2" y2="200.0" stroke="#4d7fff" stroke-width="1" opacity="0.02"/>
  <line x1="186.0" y1="74.6" x2="189.0" y2="80.1" stroke="#4d7fff" stroke-width="1" opacity="0.29"/>
  <line x1="364.2" y1="6.8" x2="277.5" y2="114.7" stroke="#4d7fff" stroke-width="1" opacity="0.00"/>
  <line x1="364.2" y1="6.8" x2="282.4" y2="43.3" stroke="#4d7fff" stroke-width="1" opacity="0.11"/>
  <line x1="364.2" y1="6.8" x2="291.4" y2="18.3" stroke="#4d7fff" stroke-width="1" opacity="0.14"/>
  <line x1="364.2" y1="6.8" x2="440.1" y2="74.0" stroke="#4d7fff" stroke-width="1" opacity="0.08"/>
  <line x1="364.2" y1="6.8" x2="339.4" y2="52.8" stroke="#4d7fff" stroke-width="1" opacity="0.19"/>
  <line x1="364.2" y1="6.8" x2="424.2" y2="24.8" stroke="#4d7fff" stroke-width="1" opacity="0.17"/>
  <line x1="404.6" y1="377.6" x2="474.8" y2="362.6" stroke="#4d7fff" stroke-width="1" opacity="0.11"/>
  <line x1="404.6" y1="377.6" x2="391.2" y2="449.7" stroke="#4d7fff" stroke-width="1" opacity="0.14"/>
  <line x1="404.6" y1="377.6" x2="519.0" y2="360.7" stroke="#4d7fff" stroke-width="1" opacity="0.04"/>
  <line x1="404.6" y1="377.6" x2="496.4" y2="464.4" stroke="#4d7fff" stroke-width="1" opacity="0.03"/>
  <line x1="404.6" y1="377.6" x2="338.4" y2="361.1" stroke="#4d7fff" stroke-width="1" opacity="0.12"/>
  <line x1="404.6" y1="377.6" x2="485.8" y2="325.1" stroke="#4d7fff" stroke-width="1" opacity="0.06"/>
  <line x1="404.6" y1="377.6" x2="387.0" y2="385.4" stroke="#4d7fff" stroke-width="1" opacity="0.21"/>
  <line x1="404.6" y1="377.6" x2="417.1" y2="265.6" stroke="#4d7fff" stroke-width="1" opacity="0.02"/>
  <line x1="277.5" y1="114.7" x2="268.4" y2="235.8" stroke="#4d7fff" stroke-width="1" opacity="0.04"/>
  <line x1="277.5" y1="114.7" x2="334.8" y2="196.2" stroke="#4d7fff" stroke-width="1" opacity="0.08"/>
  <line x1="277.5" y1="114.7" x2="208.3" y2="173.4" stroke="#4d7fff" stroke-width="1" opacity="0.11"/>
  <line x1="277.5" y1="114.7" x2="282.4" y2="43.3" stroke="#4d7fff" stroke-width="1" opacity="0.15"/>
  <line x1="277.5" y1="114.7" x2="291.4" y2="18.3" stroke="#4d7fff" stroke-width="1" opacity="0.09"/>
  <line x1="277.5" y1="114.7" x2="222.2" y2="200.0" stroke="#4d7fff" stroke-width="1" opacity="0.08"/>
  <line x1="277.5" y1="114.7" x2="189.0" y2="80.1" stroke="#4d7fff" stroke-width="1" opacity="0.10"/>
  <line x1="277.5" y1="114.7" x2="339.4" y2="52.8" stroke="#4d7fff" stroke-width="1" opacity="0.11"/>
  <line x1="474.8" y1="362.6" x2="391.2" y2="449.7" stroke="#4d7fff" stroke-width="1" opacity="0.04"/>
  <line x1="474.8" y1="362.6" x2="519.0" y2="360.7" stroke="#4d7fff" stroke-width="1" opacity="0.19"/>
  <line x1="474.8" y1="362.6" x2="496.4" y2="464.4" stroke="#4d7fff" stroke-width="1" opacity="0.08"/>
  <line x1="474.8" y1="362.6" x2="576.9" y2="372.6" stroke="#4d7fff" stroke-width="1" opacity="0.08"/>
  <line x1="474.8" y1="362.6" x2="502.8" y2="234.0" stroke="#4d7fff" stroke-width="1" opacity="0.01"/>
  <line x1="474.8" y1="362.6" x2="338.4" y2="361.1" stroke="#4d7fff" stroke-width="1" opacity="0.01"/>
  <line x1="474.8" y1="362.6" x2="485.8" y2="325.1" stroke="#4d7fff" stroke-width="1" opacity="0.17"/>
  <line x1="474.8" y1="362.6" x2="387.0" y2="385.4" stroke="#4d7fff" stroke-width="1" opacity="0.08"/>
  <line x1="474.8" y1="362.6" x2="530.6" y2="279.2" stroke="#4d7fff" stroke-width="1" opacity="0.07"/>
  <line x1="474.8" y1="362.6" x2="522.1" y2="280.9" stroke="#4d7fff" stroke-width="1" opacity="0.08"/>
  <line x1="474.8" y1="362.6" x2="417.1" y2="265.6" stroke="#4d7fff" stroke-width="1" opacity="0.03"/>
  <line x1="268.4" y1="235.8" x2="334.8" y2="196.2" stroke="#4d7fff" stroke-width="1" opacity="0.10"/>
  <line x1="268.4" y1="235.8" x2="208.3" y2="173.4" stroke="#4d7fff" stroke-width="1" opacity="0.11"/>
  <line x1="268.4" y1="235.8" x2="191.0" y2="308.6" stroke="#4d7fff" stroke-width="1" opacity="0.07"/>
  <line x1="268.4" y1="235.8" x2="133.6" y2="271.2" stroke="#4d7fff" stroke-width="1" opacity="0.00"/>
  <line x1="268.4" y1="235.8" x2="222.2" y2="200.0" stroke="#4d7fff" stroke-width="1" opacity="0.17"/>
  <line x1="268.4" y1="235.8" x2="251.6" y2="359.9" stroke="#4d7fff" stroke-width="1" opacity="0.03"/>
  <line x1="334.8" y1="196.2" x2="208.3" y2="173.4" stroke="#4d7fff" stroke-width="1" opacity="0.02"/>
  <line x1="334.8" y1="196.2" x2="222.2" y2="200.0" stroke="#4d7fff" stroke-width="1" opacity="0.05"/>
  <line x1="334.8" y1="196.2" x2="417.1" y2="265.6" stroke="#4d7fff" stroke-width="1" opacity="0.02"/>
  <line x1="391.2" y1="449.7" x2="496.4" y2="464.4" stroke="#4d7fff" stroke-width="1" opacity="0.07"/>
  <line x1="391.2" y1="449.7" x2="338.4" y2="361.1" stroke="#4d7fff" stroke-width="1" opacity="0.08"/>
  <line x1="391.2" y1="449.7" x2="387.0" y2="385.4" stroke="#4d7fff" stroke-width="1" opacity="0.16"/>
  <line x1="187.4" y1="409.2" x2="191.0" y2="308.6" stroke="#4d7fff" stroke-width="1" opacity="0.08"/>
  <line x1="187.4" y1="409.2" x2="108.2" y2="325.8" stroke="#4d7fff" stroke-width="1" opacity="0.05"/>
  <line x1="187.4" y1="409.2" x2="251.6" y2="359.9" stroke="#4d7fff" stroke-width="1" opacity="0.13"/>
  <line x1="208.3" y1="173.4" x2="191.0" y2="308.6" stroke="#4d7fff" stroke-width="1" opacity="0.01"/>
  <line x1="208.3" y1="173.4" x2="133.6" y2="271.2" stroke="#4d7fff" stroke-width="1" opacity="0.04"/>
  <line x1="208.3" y1="173.4" x2="222.2" y2="200.0" stroke="#4d7fff" stroke-width="1" opacity="0.24"/>
  <line x1="208.3" y1="173.4" x2="189.0" y2="80.1" stroke="#4d7fff" stroke-width="1" opacity="0.10"/>
  <line x1="519.0" y1="360.7" x2="496.4" y2="464.4" stroke="#4d7fff" stroke-width="1" opacity="0.07"/>
  <line x1="519.0" y1="360.7" x2="576.9" y2="372.6" stroke="#4d7fff" stroke-width="1" opacity="0.17"/>
  <line x1="519.0" y1="360.7" x2="502.8" y2="234.0" stroke="#4d7fff" stroke-width="1" opacity="0.02"/>
  <line x1="519.0" y1="360.7" x2="485.8" y2="325.1" stroke="#4d7fff" stroke-width="1" opacity="0.17"/>
  <line x1="519.0" y1="360.7" x2="598.2" y2="265.9" stroke="#4d7fff" stroke-width="1" opacity="0.04"/>
  <line x1="519.0" y1="360.7" x2="387.0" y2="385.4" stroke="#4d7fff" stroke-width="1" opacity="0.01"/>
  <line x1="519.0" y1="360.7" x2="530.6" y2="279.2" stroke="#4d7fff" stroke-width="1" opacity="0.11"/>
  <line x1="519.0" y1="360.7" x2="522.1" y2="280.9" stroke="#4d7fff" stroke-width="1" opacity="0.12"/>
  <line x1="519.0" y1="360.7" x2="417.1" y2="265.6" stroke="#4d7fff" stroke-width="1" opacity="0.00"/>
  <line x1="626.3" y1="261.0" x2="701.0" y2="327.4" stroke="#4d7fff" stroke-width="1" opacity="0.09"/>
  <line x1="626.3" y1="261.0" x2="576.9" y2="372.6" stroke="#4d7fff" stroke-width="1" opacity="0.04"/>
  <line x1="626.3" y1="261.0" x2="645.2" y2="274.8" stroke="#4d7fff" stroke-width="1" opacity="0.25"/>
  <line x1="626.3" y1="261.0" x2="502.8" y2="234.0" stroke="#4d7fff" stroke-width="1" opacity="0.03"/>
  <line x1="626.3" y1="261.0" x2="761.6" y2="278.3" stroke="#4d7fff" stroke-width="1" opacity="0.01"/>
  <line x1="626.3" y1="261.0" x2="598.2" y2="265.9" stroke="#4d7fff" stroke-width="1" opacity="0.24"/>
  <line x1="626.3" y1="261.0" x2="587.6" y2="221.5" stroke="#4d7fff" stroke-width="1" opacity="0.18"/>
  <line x1="626.3" y1="261.0" x2="509.1" y2="197.2" stroke="#4d7fff" stroke-width="1" opacity="0.01"/>
  <line x1="626.3" y1="261.0" x2="530.6" y2="279.2" stroke="#4d7fff" stroke-width="1" opacity="0.09"/>
  <line x1="626.3" y1="261.0" x2="522.1" y2="280.9" stroke="#4d7fff" stroke-width="1" opacity="0.07"/>
  <line x1="13.1" y1="104.6" x2="85.7" y2="21.4" stroke="#4d7fff" stroke-width="1" opacity="0.06"/>
  <line x1="191.0" y1="308.6" x2="133.6" y2="271.2" stroke="#4d7fff" stroke-width="1" opacity="0.15"/>
  <line x1="191.0" y1="308.6" x2="222.2" y2="200.0" stroke="#4d7fff" stroke-width="1" opacity="0.06"/>
  <line x1="191.0" y1="308.6" x2="108.2" y2="325.8" stroke="#4d7fff" stroke-width="1" opacity="0.12"/>
  <line x1="191.0" y1="308.6" x2="251.6" y2="359.9" stroke="#4d7fff" stroke-width="1" opacity="0.13"/>
  <line x1="496.4" y1="464.4" x2="576.9" y2="372.6" stroke="#4d7fff" stroke-width="1" opacity="0.04"/>
  <line x1="496.4" y1="464.4" x2="485.8" y2="325.1" stroke="#4d7fff" stroke-width="1" opacity="0.00"/>
  <line x1="496.4" y1="464.4" x2="387.0" y2="385.4" stroke="#4d7fff" stroke-width="1" opacity="0.01"/>
  <line x1="701.0" y1="327.4" x2="777.9" y2="294.9" stroke="#4d7fff" stroke-width="1" opacity="0.12"/>
  <line x1="701.0" y1="327.4" x2="576.9" y2="372.6" stroke="#4d7fff" stroke-width="1" opacity="0.02"/>
  <line x1="701.0" y1="327.4" x2="645.2" y2="274.8" stroke="#4d7fff" stroke-width="1" opacity="0.14"/>
  <line x1="701.0" y1="327.4" x2="789.6" y2="352.5" stroke="#4d7fff" stroke-width="1" opacity="0.10"/>
  <line x1="701.0" y1="327.4" x2="761.6" y2="278.3" stroke="#4d7fff" stroke-width="1" opacity="0.13"/>
  <line x1="701.0" y1="327.4" x2="598.2" y2="265.9" stroke="#4d7fff" stroke-width="1" opacity="0.04"/>
  <line x1="777.9" y1="294.9" x2="645.2" y2="274.8" stroke="#4d7fff" stroke-width="1" opacity="0.01"/>
  <line x1="777.9" y1="294.9" x2="789.6" y2="352.5" stroke="#4d7fff" stroke-width="1" opacity="0.17"/>
  <line x1="777.9" y1="294.9" x2="761.6" y2="278.3" stroke="#4d7fff" stroke-width="1" opacity="0.25"/>
  <line x1="133.6" y1="271.2" x2="222.2" y2="200.0" stroke="#4d7fff" stroke-width="1" opacity="0.06"/>
  <line x1="133.6" y1="271.2" x2="108.2" y2="325.8" stroke="#4d7fff" stroke-width="1" opacity="0.17"/>
  <line x1="282.4" y1="43.3" x2="291.4" y2="18.3" stroke="#4d7fff" stroke-width="1" opacity="0.24"/>
  <line x1="282.4" y1="43.3" x2="189.0" y2="80.1" stroke="#4d7fff" stroke-width="1" opacity="0.08"/>
  <line x1="282.4" y1="43.3" x2="339.4" y2="52.8" stroke="#4d7fff" stroke-width="1" opacity="0.18"/>
  <line x1="291.4" y1="18.3" x2="189.0" y2="80.1" stroke="#4d7fff" stroke-width="1" opacity="0.04"/>
  <line x1="291.4" y1="18.3" x2="339.4" y2="52.8" stroke="#4d7fff" stroke-width="1" opacity="0.17"/>
  <line x1="291.4" y1="18.3" x2="424.2" y2="24.8" stroke="#4d7fff" stroke-width="1" opacity="0.02"/>
  <line x1="576.9" y1="372.6" x2="645.2" y2="274.8" stroke="#4d7fff" stroke-width="1" opacity="0.04"/>
  <line x1="576.9" y1="372.6" x2="485.8" y2="325.1" stroke="#4d7fff" stroke-width="1" opacity="0.08"/>
  <line x1="576.9" y1="372.6" x2="598.2" y2="265.9" stroke="#4d7fff" stroke-width="1" opacity="0.07"/>
  <line x1="576.9" y1="372.6" x2="530.6" y2="279.2" stroke="#4d7fff" stroke-width="1" opacity="0.08"/>
  <line x1="576.9" y1="372.6" x2="522.1" y2="280.9" stroke="#4d7fff" stroke-width="1" opacity="0.07"/>
  <line x1="85.7" y1="21.4" x2="189.0" y2="80.1" stroke="#4d7fff" stroke-width="1" opacity="0.05"/>
  <line x1="510.7" y1="165.6" x2="440.1" y2="74.0" stroke="#4d7fff" stroke-width="1" opacity="0.05"/>
  <line x1="510.7" y1="165.6" x2="502.8" y2="234.0" stroke="#4d7fff" stroke-width="1" opacity="0.12"/>
  <line x1="510.7" y1="165.6" x2="492.8" y2="152.1" stroke="#4d7fff" stroke-width="1" opacity="0.24"/>
  <line x1="510.7" y1="165.6" x2="516.9" y2="38.5" stroke="#4d7fff" stroke-width="1" opacity="0.03"/>
  <line x1="510.7" y1="165.6" x2="598.2" y2="265.9" stroke="#4d7fff" stroke-width="1" opacity="0.01"/>
  <line x1="510.7" y1="165.6" x2="587.6" y2="221.5" stroke="#4d7fff" stroke-width="1" opacity="0.10"/>
  <line x1="510.7" y1="165.6" x2="509.1" y2="197.2" stroke="#4d7fff" stroke-width="1" opacity="0.21"/>
  <line x1="510.7" y1="165.6" x2="530.6" y2="279.2" stroke="#4d7fff" stroke-width="1" opacity="0.04"/>
  <line x1="510.7" y1="165.6" x2="522.1" y2="280.9" stroke="#4d7fff" stroke-width="1" opacity="0.04"/>
  <line x1="510.7" y1="165.6" x2="417.1" y2="265.6" stroke="#4d7fff" stroke-width="1" opacity="0.00"/>
  <line x1="645.2" y1="274.8" x2="761.6" y2="278.3" stroke="#4d7fff" stroke-width="1" opacity="0.05"/>
  <line x1="645.2" y1="274.8" x2="598.2" y2="265.9" stroke="#4d7fff" stroke-width="1" opacity="0.20"/>
  <line x1="645.2" y1="274.8" x2="587.6" y2="221.5" stroke="#4d7fff" stroke-width="1" opacity="0.13"/>
  <line x1="645.2" y1="274.8" x2="530.6" y2="279.2" stroke="#4d7fff" stroke-width="1" opacity="0.05"/>
  <line x1="645.2" y1="274.8" x2="522.1" y2="280.9" stroke="#4d7fff" stroke-width="1" opacity="0.04"/>
  <line x1="222.2" y1="200.0" x2="189.0" y2="80.1" stroke="#4d7fff" stroke-width="1" opacity="0.03"/>
  <line x1="789.6" y1="352.5" x2="761.6" y2="278.3" stroke="#4d7fff" stroke-width="1" opacity="0.13"/>
  <line x1="789.6" y1="352.5" x2="777.1" y2="457.1" stroke="#4d7fff" stroke-width="1" opacity="0.07"/>
  <line x1="440.1" y1="74.0" x2="492.8" y2="152.1" stroke="#4d7fff" stroke-width="1" opacity="0.10"/>
  <line x1="440.1" y1="74.0" x2="339.4" y2="52.8" stroke="#4d7fff" stroke-width="1" opacity="0.08"/>
  <line x1="440.1" y1="74.0" x2="516.9" y2="38.5" stroke="#4d7fff" stroke-width="1" opacity="0.12"/>
  <line x1="440.1" y1="74.0" x2="424.2" y2="24.8" stroke="#4d7fff" stroke-width="1" opacity="0.19"/>
  <line x1="502.8" y1="234.0" x2="492.8" y2="152.1" stroke="#4d7fff" stroke-width="1" opacity="0.10"/>
  <line x1="502.8" y1="234.0" x2="485.8" y2="325.1" stroke="#4d7fff" stroke-width="1" opacity="0.07"/>
  <line x1="502.8" y1="234.0" x2="598.2" y2="265.9" stroke="#4d7fff" stroke-width="1" opacity="0.08"/>
  <line x1="502.8" y1="234.0" x2="587.6" y2="221.5" stroke="#4d7fff" stroke-width="1" opacity="0.12"/>
  <line x1="502.8" y1="234.0" x2="509.1" y2="197.2" stroke="#4d7fff" stroke-width="1" opacity="0.17"/>
  <line x1="502.8" y1="234.0" x2="530.6" y2="279.2" stroke="#4d7fff" stroke-width="1" opacity="0.15"/>
  <line x1="502.8" y1="234.0" x2="522.1" y2="280.9" stroke="#4d7fff" stroke-width="1" opacity="0.14"/>
  <line x1="502.8" y1="234.0" x2="417.1" y2="265.6" stroke="#4d7fff" stroke-width="1" opacity="0.04"/>
  <line x1="338.4" y1="361.1" x2="251.6" y2="359.9" stroke="#4d7fff" stroke-width="1" opacity="0.11"/>
  <line x1="338.4" y1="361.1" x2="387.0" y2="385.4" stroke="#4d7fff" stroke-width="1" opacity="0.15"/>
  <line x1="338.4" y1="361.1" x2="417.1" y2="265.6" stroke="#4d7fff" stroke-width="1" opacity="0.01"/>
  <line x1="492.8" y1="152.1" x2="516.9" y2="38.5" stroke="#4d7fff" stroke-width="1" opacity="0.05"/>
  <line x1="492.8" y1="152.1" x2="587.6" y2="221.5" stroke="#4d7fff" stroke-width="1" opacity="0.05"/>
  <line x1="492.8" y1="152.1" x2="509.1" y2="197.2" stroke="#4d7fff" stroke-width="1" opacity="0.17"/>
  <line x1="492.8" y1="152.1" x2="530.6" y2="279.2" stroke="#4d7fff" stroke-width="1" opacity="0.01"/>
  <line x1="492.8" y1="152.1" x2="522.1" y2="280.9" stroke="#4d7fff" stroke-width="1" opacity="0.01"/>
  <line x1="492.8" y1="152.1" x2="417.1" y2="265.6" stroke="#4d7fff" stroke-width="1" opacity="0.00"/>
  <line x1="339.4" y1="52.8" x2="424.2" y2="24.8" stroke="#4d7fff" stroke-width="1" opacity="0.11"/>
  <line x1="485.8" y1="325.1" x2="598.2" y2="265.9" stroke="#4d7fff" stroke-width="1" opacity="0.03"/>
  <line x1="485.8" y1="325.1" x2="387.0" y2="385.4" stroke="#4d7fff" stroke-width="1" opacity="0.04"/>
  <line x1="485.8" y1="325.1" x2="509.1" y2="197.2" stroke="#4d7fff" stroke-width="1" opacity="0.01"/>
  <line x1="485.8" y1="325.1" x2="530.6" y2="279.2" stroke="#4d7fff" stroke-width="1" opacity="0.13"/>
  <line x1="485.8" y1="325.1" x2="522.1" y2="280.9" stroke="#4d7fff" stroke-width="1" opacity="0.13"/>
  <line x1="485.8" y1="325.1" x2="417.1" y2="265.6" stroke="#4d7fff" stroke-width="1" opacity="0.04"/>
  <line x1="516.9" y1="38.5" x2="424.2" y2="24.8" stroke="#4d7fff" stroke-width="1" opacity="0.10"/>
  <line x1="251.6" y1="359.9" x2="387.0" y2="385.4" stroke="#4d7fff" stroke-width="1" opacity="0.00"/>
  <line x1="733.0" y1="490.9" x2="777.1" y2="457.1" stroke="#4d7fff" stroke-width="1" opacity="0.18"/>
  <line x1="598.2" y1="265.9" x2="587.6" y2="221.5" stroke="#4d7fff" stroke-width="1" opacity="0.20"/>
  <line x1="598.2" y1="265.9" x2="509.1" y2="197.2" stroke="#4d7fff" stroke-width="1" opacity="0.06"/>
  <line x1="598.2" y1="265.9" x2="530.6" y2="279.2" stroke="#4d7fff" stroke-width="1" opacity="0.15"/>
  <line x1="598.2" y1="265.9" x2="522.1" y2="280.9" stroke="#4d7fff" stroke-width="1" opacity="0.13"/>
  <line x1="387.0" y1="385.4" x2="417.1" y2="265.6" stroke="#4d7fff" stroke-width="1" opacity="0.02"/>
  <line x1="587.6" y1="221.5" x2="509.1" y2="197.2" stroke="#4d7fff" stroke-width="1" opacity="0.12"/>
  <line x1="587.6" y1="221.5" x2="530.6" y2="279.2" stroke="#4d7fff" stroke-width="1" opacity="0.13"/>
  <line x1="587.6" y1="221.5" x2="522.1" y2="280.9" stroke="#4d7fff" stroke-width="1" opacity="0.11"/>
  <line x1="509.1" y1="197.2" x2="530.6" y2="279.2" stroke="#4d7fff" stroke-width="1" opacity="0.10"/>
  <line x1="509.1" y1="197.2" x2="522.1" y2="280.9" stroke="#4d7fff" stroke-width="1" opacity="0.09"/>
  <line x1="509.1" y1="197.2" x2="417.1" y2="265.6" stroke="#4d7fff" stroke-width="1" opacity="0.03"/>
  <line x1="530.6" y1="279.2" x2="522.1" y2="280.9" stroke="#4d7fff" stroke-width="1" opacity="0.24"/>
  <line x1="530.6" y1="279.2" x2="417.1" y2="265.6" stroke="#4d7fff" stroke-width="1" opacity="0.03"/>
  <line x1="522.1" y1="280.9" x2="417.1" y2="265.6" stroke="#4d7fff" stroke-width="1" opacity="0.03"/>
  <circle cx="58.7" cy="309.1" r="2" fill="#4d7fff" opacity="0.40"/>
  <circle cx="495.8" cy="159.6" r="4" fill="#C084FC" opacity="0.31" filter="url(#glow)"/>
  <circle cx="186.0" cy="74.6" r="2" fill="#818CF8" opacity="0.56"/>
  <circle cx="364.2" cy="6.8" r="2" fill="#A78BFA" opacity="0.60"/>
  <circle cx="404.6" cy="377.6" r="3" fill="#C084FC" opacity="0.65"/>
  <circle cx="277.5" cy="114.7" r="3" fill="#C084FC" opacity="0.54"/>
  <circle cx="474.8" cy="362.6" r="3" fill="#4d7fff" opacity="0.67"/>
  <circle cx="268.4" cy="235.8" r="2" fill="#C084FC" opacity="0.27"/>
  <circle cx="334.8" cy="196.2" r="2" fill="#2251ff" opacity="0.38"/>
  <circle cx="391.2" cy="449.7" r="4" fill="#2251ff" opacity="0.47" filter="url(#glow)"/>
  <circle cx="187.4" cy="409.2" r="3" fill="#A78BFA" opacity="0.50"/>
  <circle cx="208.3" cy="173.4" r="3" fill="#C084FC" opacity="0.28"/>
  <circle cx="519.0" cy="360.7" r="2" fill="#818CF8" opacity="0.70"/>
  <circle cx="626.3" cy="261.0" r="2" fill="#2251ff" opacity="0.60"/>
  <circle cx="788.8" cy="6.9" r="3" fill="#4d7fff" opacity="0.34"/>
  <circle cx="13.1" cy="104.6" r="2" fill="#2251ff" opacity="0.30"/>
  <circle cx="191.0" cy="308.6" r="2" fill="#4d7fff" opacity="0.60"/>
  <circle cx="496.4" cy="464.4" r="3" fill="#4d7fff" opacity="0.65"/>
  <circle cx="701.0" cy="327.4" r="3" fill="#C084FC" opacity="0.57"/>
  <circle cx="777.9" cy="294.9" r="3" fill="#2251ff" opacity="0.26"/>
  <circle cx="133.6" cy="271.2" r="3" fill="#A78BFA" opacity="0.42"/>
  <circle cx="282.4" cy="43.3" r="2" fill="#2251ff" opacity="0.48"/>
  <circle cx="291.4" cy="18.3" r="2" fill="#C084FC" opacity="0.53"/>
  <circle cx="576.9" cy="372.6" r="4" fill="#818CF8" opacity="0.59" filter="url(#glow)"/>
  <circle cx="85.7" cy="21.4" r="2" fill="#4d7fff" opacity="0.40"/>
  <circle cx="510.7" cy="165.6" r="3" fill="#4d7fff" opacity="0.57"/>
  <circle cx="645.2" cy="274.8" r="2" fill="#818CF8" opacity="0.55"/>
  <circle cx="222.2" cy="200.0" r="2" fill="#C084FC" opacity="0.63"/>
  <circle cx="189.0" cy="80.1" r="4" fill="#C084FC" opacity="0.30"/>
  <circle cx="789.6" cy="352.5" r="4" fill="#A78BFA" opacity="0.40"/>
  <circle cx="440.1" cy="74.0" r="2" fill="#818CF8" opacity="0.70"/>
  <circle cx="502.8" cy="234.0" r="3" fill="#4d7fff" opacity="0.62"/>
  <circle cx="338.4" cy="361.1" r="4" fill="#C084FC" opacity="0.61"/>
  <circle cx="492.8" cy="152.1" r="2" fill="#818CF8" opacity="0.67"/>
  <circle cx="339.4" cy="52.8" r="3" fill="#C084FC" opacity="0.48"/>
  <circle cx="108.2" cy="325.8" r="4" fill="#4d7fff" opacity="0.57"/>
  <circle cx="485.8" cy="325.1" r="2" fill="#A78BFA" opacity="0.48"/>
  <circle cx="516.9" cy="38.5" r="2" fill="#C084FC" opacity="0.45"/>
  <circle cx="251.6" cy="359.9" r="3" fill="#A78BFA" opacity="0.34"/>
  <circle cx="761.6" cy="278.3" r="3" fill="#C084FC" opacity="0.41"/>
  <circle cx="424.2" cy="24.8" r="4" fill="#C084FC" opacity="0.43"/>
  <circle cx="733.0" cy="490.9" r="2" fill="#818CF8" opacity="0.48"/>
  <circle cx="598.2" cy="265.9" r="3" fill="#C084FC" opacity="0.30"/>
  <circle cx="387.0" cy="385.4" r="2" fill="#4d7fff" opacity="0.49"/>
  <circle cx="587.6" cy="221.5" r="4" fill="#C084FC" opacity="0.30"/>
  <circle cx="509.1" cy="197.2" r="2" fill="#2251ff" opacity="0.43"/>
  <circle cx="530.6" cy="279.2" r="2" fill="#4d7fff" opacity="0.55"/>
  <circle cx="522.1" cy="280.9" r="3" fill="#C084FC" opacity="0.32"/>
  <circle cx="777.1" cy="457.1" r="4" fill="#2251ff" opacity="0.60"/>
  <circle cx="417.1" cy="265.6" r="3" fill="#A78BFA" opacity="0.57"/>
  <rect width="800" height="520" fill="url(#centerClear)"/>
  <linearGradient id="btmFade" x1="0" y1="0" x2="0" y2="1">
    <stop offset="0%" stop-color="#051c2c" stop-opacity="0"/>
    <stop offset="100%" stop-color="#051c2c" stop-opacity="0.6"/>
  </linearGradient>
  <rect x="0" y="440" width="800" height="80" fill="url(#btmFade)"/>
</svg>