<svg xmlns="http://www.w3.org/2000/svg" viewBox="0 0 800 520" preserveAspectRatio="xMidYMid slice">
  <defs>
    <filter id="glow" x="-50%" y="-50%" width="200%" height="200%">
      <feGaussianBlur stdDeviation="4" result="blur"/>
      <feMerge><feMergeNode in="blur"/><feMergeNode in="SourceGraphic"/></feMerge>
    </filter>
    <radialGradient id="centerClear" cx="50%" cy="45%" r="55%">
      <stop offset="0%" stop-color="#051c2c" stop-opacity="0.75"/>
      <stop offset="50%" stop-color="#051c2c" stop-opacity="0.35"/>
      <stop offset="100%" stop-color="#051c2c" stop-opacity="0"/>
    </radialGradient>
  </defs>
  <rect width="800" height="520" fill="#051c2c"/>
  <circle cx="478.8" cy="394.5" r="33.06362636367078" fill="#22D3EE" opacity="0.044"/>
  <circle cx="253.3" cy="173.3" r="55.859784004202325" fill="#34D399" opacity="0.039"/>
  <circle cx="512.0" cy="184.8" r="34.85388755413479" fill="#22D3EE" opacity="0.041"/>
  <circle cx="198.4" cy="168.8" r="42.72134790791711" fill="#2DD4BF" opacity="0.035"/>
  <circle cx="127.9" cy="420.7" r="60.63729719114808" fill="#34D399" opacity="0.050"/>
  <circle cx="100.0" cy="68.3" r="34.3665997281593" fill="#22D3EE" opacity="0.040"/>
  <line x1="742.4" y1="90.0" x2="718.2" y2="185.0" stroke="#4d7fff" stroke-width="1" opacity="0.09"/>
  <line x1="742.4" y1="90.0" x2="613.8" y2="124.1" stroke="#4d7fff" stroke-width="1" opacity="0.01"/>
  <line x1="742.4" y1="90.0" x2="775.1" y2="122.4" stroke="#4d7fff" stroke-width="1" opacity="0.20"/>
  <line x1="742.4" y1="90.0" x2="786.2" y2="183.9" stroke="#4d7fff" stroke-width="1" opacity="0.08"/>
  <line x1="742.4" y1="90.0" x2="696.4" y2="8.8" stroke="#4d7fff" stroke-width="1" opacity="0.10"/>
  <line x1="742.4" y1="90.0" x2="674.2" y2="22.7" stroke="#4d7fff" stroke-width="1" opacity="0.09"/>
  <line x1="742.4" y1="90.0" x2="707.1" y2="128.2" stroke="#4d7fff" stroke-width="1" opacity="0.19"/>
  <line x1="742.4" y1="90.0" x2="731.0" y2="27.8" stroke="#4d7fff" stroke-width="1" opacity="0.16"/>
  <line x1="718.2" y1="185.0" x2="595.2" y2="236.5" stroke="#4d7fff" stroke-width="1" opacity="0.01"/>
  <line x1="718.2" y1="185.0" x2="753.1" y2="296.8" stroke="#4d7fff" stroke-width="1" opacity="0.05"/>
  <line x1="718.2" y1="185.0" x2="613.8" y2="124.1" stroke="#4d7fff" stroke-width="1" opacity="0.04"/>
  <line x1="718.2" y1="185.0" x2="775.1" y2="122.4" stroke="#4d7fff" stroke-width="1" opacity="0.12"/>
  <line x1="718.2" y1="185.0" x2="786.2" y2="183.9" stroke="#4d7fff" stroke-width="1" opacity="0.15"/>
  <line x1="718.2" y1="185.0" x2="707.1" y2="128.2" stroke="#4d7fff" stroke-width="1" opacity="0.18"/>
  <line x1="718.2" y1="185.0" x2="776.1" y2="256.2" stroke="#4d7fff" stroke-width="1" opacity="0.10"/>
  <line x1="768.9" y1="512.3" x2="791.2" y2="440.2" stroke="#4d7fff" stroke-width="1" opacity="0.14"/>
  <line x1="378.0" y1="269.7" x2="341.4" y2="358.7" stroke="#4d7fff" stroke-width="1" opacity="0.04"/>
  <line x1="378.0" y1="269.7" x2="274.6" y2="207.5" stroke="#4d7fff" stroke-width="1" opacity="0.02"/>
  <line x1="378.0" y1="269.7" x2="274.6" y2="340.4" stroke="#4d7fff" stroke-width="1" opacity="0.02"/>
  <line x1="378.0" y1="269.7" x2="277.6" y2="272.0" stroke="#4d7fff" stroke-width="1" opacity="0.04"/>
  <line x1="378.0" y1="269.7" x2="338.6" y2="380.8" stroke="#4d7fff" stroke-width="1" opacity="0.02"/>
  <line x1="378.0" y1="269.7" x2="445.1" y2="310.1" stroke="#4d7fff" stroke-width="1" opacity="0.03"/>
  <line x1="378.0" y1="269.7" x2="246.3" y2="243.5" stroke="#4d7fff" stroke-width="1" opacity="0.01"/>
  <line x1="378.0" y1="269.7" x2="501.6" y2="259.2" stroke="#4d7fff" stroke-width="1" opacity="0.01"/>
  <line x1="553.3" y1="373.7" x2="585.4" y2="299.1" stroke="#4d7fff" stroke-width="1" opacity="0.13"/>
  <line x1="553.3" y1="373.7" x2="445.1" y2="310.1" stroke="#4d7fff" stroke-width="1" opacity="0.03"/>
  <line x1="553.3" y1="373.7" x2="550.9" y2="396.0" stroke="#4d7fff" stroke-width="1" opacity="0.25"/>
  <line x1="553.3" y1="373.7" x2="689.5" y2="370.4" stroke="#4d7fff" stroke-width="1" opacity="0.01"/>
  <line x1="553.3" y1="373.7" x2="501.6" y2="259.2" stroke="#4d7fff" stroke-width="1" opacity="0.03"/>
  <line x1="15.5" y1="206.9" x2="1.5" y2="280.3" stroke="#4d7fff" stroke-width="1" opacity="0.14"/>
  <line x1="15.5" y1="206.9" x2="27.1" y2="89.7" stroke="#4d7fff" stroke-width="1" opacity="0.05"/>
  <line x1="15.5" y1="206.9" x2="3.5" y2="171.3" stroke="#4d7fff" stroke-width="1" opacity="0.22"/>
  <line x1="15.5" y1="206.9" x2="109.9" y2="232.9" stroke="#4d7fff" stroke-width="1" opacity="0.09"/>
  <line x1="370.5" y1="491.9" x2="341.4" y2="358.7" stroke="#4d7fff" stroke-width="1" opacity="0.01"/>
  <line x1="370.5" y1="491.9" x2="372.7" y2="517.2" stroke="#4d7fff" stroke-width="1" opacity="0.25"/>
  <line x1="370.5" y1="491.9" x2="338.6" y2="380.8" stroke="#4d7fff" stroke-width="1" opacity="0.05"/>
  <line x1="370.5" y1="491.9" x2="254.7" y2="476.4" stroke="#4d7fff" stroke-width="1" opacity="0.05"/>
  <line x1="341.4" y1="358.7" x2="274.6" y2="340.4" stroke="#4d7fff" stroke-width="1" opacity="0.13"/>
  <line x1="341.4" y1="358.7" x2="249.9" y2="334.9" stroke="#4d7fff" stroke-width="1" opacity="0.09"/>
  <line x1="341.4" y1="358.7" x2="277.6" y2="272.0" stroke="#4d7fff" stroke-width="1" opacity="0.05"/>
  <line x1="341.4" y1="358.7" x2="424.7" y2="256.6" stroke="#4d7fff" stroke-width="1" opacity="0.01"/>
  <line x1="341.4" y1="358.7" x2="338.6" y2="380.8" stroke="#4d7fff" stroke-width="1" opacity="0.21"/>
  <line x1="341.4" y1="358.7" x2="445.1" y2="310.1" stroke="#4d7fff" stroke-width="1" opacity="0.03"/>
  <line x1="585.4" y1="299.1" x2="595.2" y2="236.5" stroke="#4d7fff" stroke-width="1" opacity="0.16"/>
  <line x1="585.4" y1="299.1" x2="550.9" y2="396.0" stroke="#4d7fff" stroke-width="1" opacity="0.08"/>
  <line x1="585.4" y1="299.1" x2="689.5" y2="370.4" stroke="#4d7fff" stroke-width="1" opacity="0.03"/>
  <line x1="585.4" y1="299.1" x2="501.6" y2="259.2" stroke="#4d7fff" stroke-width="1" opacity="0.10"/>
  <line x1="199.4" y1="52.9" x2="311.1" y2="10.1" stroke="#4d7fff" stroke-width="1" opacity="0.04"/>
  <line x1="791.2" y1="440.2" x2="689.5" y2="370.4" stroke="#4d7fff" stroke-width="1" opacity="0.04"/>
  <line x1="274.6" y1="207.5" x2="274.6" y2="340.4" stroke="#4d7fff" stroke-width="1" opacity="0.01"/>
  <line x1="274.6" y1="207.5" x2="249.9" y2="334.9" stroke="#4d7fff" stroke-width="1" opacity="0.02"/>
  <line x1="274.6" y1="207.5" x2="277.6" y2="272.0" stroke="#4d7fff" stroke-width="1" opacity="0.14"/>
  <line x1="274.6" y1="207.5" x2="338.5" y2="119.3" stroke="#4d7fff" stroke-width="1" opacity="0.06"/>
  <line x1="274.6" y1="207.5" x2="246.3" y2="243.5" stroke="#4d7fff" stroke-width="1" opacity="0.19"/>
  <line x1="274.6" y1="207.5" x2="269.1" y2="176.6" stroke="#4d7fff" stroke-width="1" opacity="0.23"/>
  <line x1="274.6" y1="207.5" x2="212.4" y2="264.4" stroke="#4d7fff" stroke-width="1" opacity="0.12"/>
  <line x1="1.5" y1="280.3" x2="3.5" y2="171.3" stroke="#4d7fff" stroke-width="1" opacity="0.07"/>
  <line x1="1.5" y1="280.3" x2="109.9" y2="232.9" stroke="#4d7fff" stroke-width="1" opacity="0.05"/>
  <line x1="595.2" y1="236.5" x2="525.5" y2="135.0" stroke="#4d7fff" stroke-width="1" opacity="0.04"/>
  <line x1="595.2" y1="236.5" x2="509.3" y2="178.3" stroke="#4d7fff" stroke-width="1" opacity="0.08"/>
  <line x1="595.2" y1="236.5" x2="613.8" y2="124.1" stroke="#4d7fff" stroke-width="1" opacity="0.06"/>
  <line x1="595.2" y1="236.5" x2="501.6" y2="259.2" stroke="#4d7fff" stroke-width="1" opacity="0.09"/>
  <line x1="274.6" y1="340.4" x2="249.9" y2="334.9" stroke="#4d7fff" stroke-width="1" opacity="0.25"/>
  <line x1="274.6" y1="340.4" x2="277.6" y2="272.0" stroke="#4d7fff" stroke-width="1" opacity="0.14"/>
  <line x1="274.6" y1="340.4" x2="338.6" y2="380.8" stroke="#4d7fff" stroke-width="1" opacity="0.13"/>
  <line x1="274.6" y1="340.4" x2="254.7" y2="476.4" stroke="#4d7fff" stroke-width="1" opacity="0.01"/>
  <line x1="274.6" y1="340.4" x2="246.3" y2="243.5" stroke="#4d7fff" stroke-width="1" opacity="0.08"/>
  <line x1="274.6" y1="340.4" x2="212.4" y2="264.4" stroke="#4d7fff" stroke-width="1" opacity="0.09"/>
  <line x1="274.6" y1="340.4" x2="169.6" y2="415.9" stroke="#4d7fff" stroke-width="1" opacity="0.02"/>
  <line x1="525.5" y1="135.0" x2="450.8" y2="87.6" stroke="#4d7fff" stroke-width="1" opacity="0.11"/>
  <line x1="525.5" y1="135.0" x2="509.3" y2="178.3" stroke="#4d7fff" stroke-width="1" opacity="0.20"/>
  <line x1="525.5" y1="135.0" x2="613.8" y2="124.1" stroke="#4d7fff" stroke-width="1" opacity="0.11"/>
  <line x1="525.5" y1="135.0" x2="607.1" y2="30.4" stroke="#4d7fff" stroke-width="1" opacity="0.02"/>
  <line x1="525.5" y1="135.0" x2="501.6" y2="259.2" stroke="#4d7fff" stroke-width="1" opacity="0.03"/>
  <line x1="525.5" y1="135.0" x2="441.2" y2="42.4" stroke="#4d7fff" stroke-width="1" opacity="0.03"/>
  <line x1="753.1" y1="296.8" x2="786.2" y2="183.9" stroke="#4d7fff" stroke-width="1" opacity="0.05"/>
  <line x1="753.1" y1="296.8" x2="689.5" y2="370.4" stroke="#4d7fff" stroke-width="1" opacity="0.09"/>
  <line x1="753.1" y1="296.8" x2="776.1" y2="256.2" stroke="#4d7fff" stroke-width="1" opacity="0.20"/>
  <line x1="372.7" y1="517.2" x2="254.7" y2="476.4" stroke="#4d7fff" stroke-width="1" opacity="0.03"/>
  <line x1="450.8" y1="87.6" x2="509.3" y2="178.3" stroke="#4d7fff" stroke-width="1" opacity="0.07"/>
  <line x1="450.8" y1="87.6" x2="338.5" y2="119.3" stroke="#4d7fff" stroke-width="1" opacity="0.05"/>
  <line x1="450.8" y1="87.6" x2="414.2" y2="45.4" stroke="#4d7fff" stroke-width="1" opacity="0.18"/>
  <line x1="450.8" y1="87.6" x2="441.2" y2="42.4" stroke="#4d7fff" stroke-width="1" opacity="0.20"/>
  <line x1="509.3" y1="178.3" x2="613.8" y2="124.1" stroke="#4d7fff" stroke-width="1" opacity="0.05"/>
  <line x1="509.3" y1="178.3" x2="424.7" y2="256.6" stroke="#4d7fff" stroke-width="1" opacity="0.03"/>
  <line x1="509.3" y1="178.3" x2="501.6" y2="259.2" stroke="#4d7fff" stroke-width="1" opacity="0.10"/>
  <line x1="27.1" y1="89.7" x2="3.5" y2="171.3" stroke="#4d7fff" stroke-width="1" opacity="0.12"/>
  <line x1="613.8" y1="124.1" x2="607.1" y2="30.4" stroke="#4d7fff" stroke-width="1" opacity="0.10"/>
  <line x1="613.8" y1="124.1" x2="674.2" y2="22.7" stroke="#4d7fff" stroke-width="1" opacity="0.05"/>
  <line x1="613.8" y1="124.1" x2="707.1" y2="128.2" stroke="#4d7fff" stroke-width="1" opacity="0.10"/>
  <line x1="249.9" y1="334.9" x2="277.6" y2="272.0" stroke="#4d7fff" stroke-width="1" opacity="0.15"/>
  <line x1="249.9" y1="334.9" x2="338.6" y2="380.8" stroke="#4d7fff" stroke-width="1" opacity="0.08"/>
  <line x1="249.9" y1="334.9" x2="246.3" y2="243.5" stroke="#4d7fff" stroke-width="1" opacity="0.10"/>
  <line x1="249.9" y1="334.9" x2="212.4" y2="264.4" stroke="#4d7fff" stroke-width="1" opacity="0.13"/>
  <line x1="249.9" y1="334.9" x2="169.6" y2="415.9" stroke="#4d7fff" stroke-width="1" opacity="0.06"/>
  <line x1="277.6" y1="272.0" x2="338.6" y2="380.8" stroke="#4d7fff" stroke-width="1" opacity="0.02"/>
  <line x1="277.6" y1="272.0" x2="246.3" y2="243.5" stroke="#4d7fff" stroke-width="1" opacity="0.19"/>
  <line x1="277.6" y1="272.0" x2="269.1" y2="176.6" stroke="#4d7fff" stroke-width="1" opacity="0.08"/>
  <line x1="277.6" y1="272.0" x2="212.4" y2="264.4" stroke="#4d7fff" stroke-width="1" opacity="0.16"/>
  <line x1="424.7" y1="256.6" x2="445.1" y2="310.1" stroke="#4d7fff" stroke-width="1" opacity="0.05"/>
  <line x1="424.7" y1="256.6" x2="501.6" y2="259.2" stroke="#4d7fff" stroke-width="1" opacity="0.06"/>
  <line x1="775.1" y1="122.4" x2="786.2" y2="183.9" stroke="#4d7fff" stroke-width="1" opacity="0.17"/>
  <line x1="775.1" y1="122.4" x2="696.4" y2="8.8" stroke="#4d7fff" stroke-width="1" opacity="0.00"/>
  <line x1="775.1" y1="122.4" x2="707.1" y2="128.2" stroke="#4d7fff" stroke-width="1" opacity="0.15"/>
  <line x1="775.1" y1="122.4" x2="731.0" y2="27.8" stroke="#4d7fff" stroke-width="1" opacity="0.08"/>
  <line x1="775.1" y1="122.4" x2="776.1" y2="256.2" stroke="#4d7fff" stroke-width="1" opacity="0.01"/>
  <line x1="338.6" y1="380.8" x2="445.1" y2="310.1" stroke="#4d7fff" stroke-width="1" opacity="0.01"/>
  <line x1="338.6" y1="380.8" x2="254.7" y2="476.4" stroke="#4d7fff" stroke-width="1" opacity="0.03"/>
  <line x1="786.2" y1="183.9" x2="707.1" y2="128.2" stroke="#4d7fff" stroke-width="1" opacity="0.09"/>
  <line x1="786.2" y1="183.9" x2="776.1" y2="256.2" stroke="#4d7fff" stroke-width="1" opacity="0.14"/>
  <line x1="445.1" y1="310.1" x2="550.9" y2="396.0" stroke="#4d7fff" stroke-width="1" opacity="0.01"/>
  <line x1="445.1" y1="310.1" x2="501.6" y2="259.2" stroke="#4d7fff" stroke-width="1" opacity="0.07"/>
  <line x1="607.1" y1="30.4" x2="696.4" y2="8.8" stroke="#4d7fff" stroke-width="1" opacity="0.10"/>
  <line x1="607.1" y1="30.4" x2="674.2" y2="22.7" stroke="#4d7fff" stroke-width="1" opacity="0.16"/>
  <line x1="607.1" y1="30.4" x2="707.1" y2="128.2" stroke="#4d7fff" stroke-width="1" opacity="0.00"/>
  <line x1="607.1" y1="30.4" x2="731.0" y2="27.8" stroke="#4d7fff" stroke-width="1" opacity="0.03"/>
  <line x1="338.5" y1="119.3" x2="269.1" y2="176.6" stroke="#4d7fff" stroke-width="1" opacity="0.11"/>
  <line x1="338.5" y1="119.3" x2="414.2" y2="45.4" stroke="#4d7fff" stroke-width="1" opacity="0.07"/>
  <line x1="338.5" y1="119.3" x2="441.2" y2="42.4" stroke="#4d7fff" stroke-width="1" opacity="0.03"/>
  <line x1="338.5" y1="119.3" x2="311.1" y2="10.1" stroke="#4d7fff" stroke-width="1" opacity="0.06"/>
  <line x1="254.7" y1="476.4" x2="169.6" y2="415.9" stroke="#4d7fff" stroke-width="1" opacity="0.08"/>
  <line x1="696.4" y1="8.8" x2="674.2" y2="22.7" stroke="#4d7fff" stroke-width="1" opacity="0.24"/>
  <line x1="696.4" y1="8.8" x2="707.1" y2="128.2" stroke="#4d7fff" stroke-width="1" opacity="0.04"/>
  <line x1="696.4" y1="8.8" x2="731.0" y2="27.8" stroke="#4d7fff" stroke-width="1" opacity="0.22"/>
  <line x1="125.7" y1="413.1" x2="169.6" y2="415.9" stroke="#4d7fff" stroke-width="1" opacity="0.21"/>
  <line x1="674.2" y1="22.7" x2="707.1" y2="128.2" stroke="#4d7fff" stroke-width="1" opacity="0.06"/>
  <line x1="674.2" y1="22.7" x2="731.0" y2="27.8" stroke="#4d7fff" stroke-width="1" opacity="0.18"/>
  <line x1="246.3" y1="243.5" x2="269.1" y2="176.6" stroke="#4d7fff" stroke-width="1" opacity="0.15"/>
  <line x1="246.3" y1="243.5" x2="212.4" y2="264.4" stroke="#4d7fff" stroke-width="1" opacity="0.21"/>
  <line x1="246.3" y1="243.5" x2="109.9" y2="232.9" stroke="#4d7fff" stroke-width="1" opacity="0.01"/>
  <line x1="269.1" y1="176.6" x2="212.4" y2="264.4" stroke="#4d7fff" stroke-width="1" opacity="0.08"/>
  <line x1="707.1" y1="128.2" x2="731.0" y2="27.8" stroke="#4d7fff" stroke-width="1" opacity="0.08"/>
  <line x1="3.5" y1="171.3" x2="109.9" y2="232.9" stroke="#4d7fff" stroke-width="1" opacity="0.04"/>
  <line x1="414.2" y1="45.4" x2="441.2" y2="42.4" stroke="#4d7fff" stroke-width="1" opacity="0.24"/>
  <line x1="414.2" y1="45.4" x2="311.1" y2="10.1" stroke="#4d7fff" stroke-width="1" opacity="0.07"/>
  <line x1="212.4" y1="264.4" x2="109.9" y2="232.9" stroke="#4d7fff" stroke-width="1" opacity="0.07"/>
  <line x1="441.2" y1="42.4" x2="311.1" y2="10.1" stroke="#4d7fff" stroke-width="1" opacity="0.01"/>
  <circle cx="742.4" cy="90.0" r="2" fill="#2DD4BF" opacity="0.65"/>
  <circle cx="718.2" cy="185.0" r="4" fill="#34D399" opacity="0.33"/>
  <circle cx="768.9" cy="512.3" r="2" fill="#34D399" opacity="0.64"/>
  <circle cx="378.0" cy="269.7" r="3" fill="#22D3EE" opacity="0.68"/>
  <circle cx="553.3" cy="373.7" r="3" fill="#4d7fff" opacity="0.50"/>
  <circle cx="15.5" cy="206.9" r="3" fill="#2DD4BF" opacity="0.65"/>
  <circle cx="370.5" cy="491.9" r="3" fill="#4d7fff" opacity="0.64"/>
  <circle cx="341.4" cy="358.7" r="3" fill="#4d7fff" opacity="0.34"/>
  <circle cx="585.4" cy="299.1" r="4" fill="#22D3EE" opacity="0.34"/>
  <circle cx="199.4" cy="52.9" r="3" fill="#2251ff" opacity="0.45"/>
  <circle cx="791.2" cy="440.2" r="3" fill="#22D3EE" opacity="0.68"/>
  <circle cx="274.6" cy="207.5" r="3" fill="#2251ff" opacity="0.40"/>
  <circle cx="1.5" cy="280.3" r="4" fill="#34D399" opacity="0.28"/>
  <circle cx="595.2" cy="236.5" r="2" fill="#2DD4BF" opacity="0.54"/>
  <circle cx="274.6" cy="340.4" r="2" fill="#34D399" opacity="0.68"/>
  <circle cx="525.5" cy="135.0" r="3" fill="#2251ff" opacity="0.70"/>
  <circle cx="753.1" cy="296.8" r="2" fill="#34D399" opacity="0.43"/>
  <circle cx="372.7" cy="517.2" r="3" fill="#22D3EE" opacity="0.43"/>
  <circle cx="450.8" cy="87.6" r="4" fill="#34D399" opacity="0.62" filter="url(#glow)"/>
  <circle cx="509.3" cy="178.3" r="3" fill="#22D3EE" opacity="0.47"/>
  <circle cx="27.1" cy="89.7" r="3" fill="#2DD4BF" opacity="0.28"/>
  <circle cx="613.8" cy="124.1" r="2" fill="#4d7fff" opacity="0.33"/>
  <circle cx="249.9" cy="334.9" r="4" fill="#2251ff" opacity="0.66"/>
  <circle cx="277.6" cy="272.0" r="2" fill="#2251ff" opacity="0.48"/>
  <circle cx="424.7" cy="256.6" r="3" fill="#4d7fff" opacity="0.44"/>
  <circle cx="775.1" cy="122.4" r="3" fill="#22D3EE" opacity="0.26"/>
  <circle cx="338.6" cy="380.8" r="4" fill="#2251ff" opacity="0.31"/>
  <circle cx="786.2" cy="183.9" r="4" fill="#4d7fff" opacity="0.45"/>
  <circle cx="445.1" cy="310.1" r="2" fill="#4d7fff" opacity="0.64"/>
  <circle cx="550.9" cy="396.0" r="3" fill="#2DD4BF" opacity="0.58"/>
  <circle cx="607.1" cy="30.4" r="2" fill="#34D399" opacity="0.48"/>
  <circle cx="338.5" cy="119.3" r="2" fill="#2251ff" opacity="0.25"/>
  <circle cx="254.7" cy="476.4" r="3" fill="#2DD4BF" opacity="0.61"/>
  <circle cx="696.4" cy="8.8" r="4" fill="#2DD4BF" opacity="0.58"/>
  <circle cx="689.5" cy="370.4" r="4" fill="#4d7fff" opacity="0.33"/>
  <circle cx="125.7" cy="413.1" r="3" fill="#2251ff" opacity="0.50"/>
  <circle cx="674.2" cy="22.7" r="3" fill="#4d7fff" opacity="0.49"/>
  <circle cx="246.3" cy="243.5" r="3" fill="#34D399" opacity="0.69"/>
  <circle cx="269.1" cy="176.6" r="4" fill="#2DD4BF" opacity="0.53"/>
  <circle cx="707.1" cy="128.2" r="2" fill="#2251ff" opacity="0.47"/>
  <circle cx="3.5" cy="171.3" r="3" fill="#22D3EE" opacity="0.51"/>
  <circle cx="414.2" cy="45.4" r="4" fill="#4d7fff" opacity="0.67"/>
  <circle cx="731.0" cy="27.8" r="2" fill="#22D3EE" opacity="0.28"/>
  <circle cx="212.4" cy="264.4" r="2" fill="#2DD4BF" opacity="0.64"/>
  <circle cx="776.1" cy="256.2" r="4" fill="#34D399" opacity="0.55"/>
  <circle cx="501.6" cy="259.2" r="4" fill="#2DD4BF" opacity="0.38"/>
  <circle cx="109.9" cy="232.9" r="2" fill="#22D3EE" opacity="0.27"/>
  <circle cx="441.2" cy="42.4" r="3" fill="#4d7fff" opacity="0.52"/>
  <circle cx="311.1" cy="10.1" r="3" fill="#22D3EE" opacity="0.41"/>
  <circle cx="169.6" cy="415.9" r="2" fill="#34D399" opacity="0.25"/>
  <rect width="800" height="520" fill="url(#centerClear)"/>
  <linearGradient id="btmFade" x1="0" y1="0" x2="0" y2="1">
    <stop offset="0%" stop-color="#051c2c" stop-opacity="0"/>
    <stop offset="100%" stop-color="#051c2c" stop-opacity="0.6"/>
  </linearGradient>
  <rect x="0" y="440" width="800" height="80" fill="url(#btmFade)"/>
</svg>