<svg xmlns="http://www.w3.org/2000/svg" viewBox="0 0 800 520" preserveAspectRatio="xMidYMid slice">
  <defs>
    <filter id="glow" x="-50%" y="-50%" width="200%" height="200%">
      <feGaussianBlur stdDeviation="4" result="blur"/>
      <feMerge><feMergeNode in="blur"/><feMergeNode in="SourceGraphic"/></feMerge>
    </filter>
    <radialGradient id="centerClear" cx="50%" cy="45%" r="55%">
      <stop offset="0%" stop-color="#051c2c" stop-opacity="0.75"/>
      <stop offset="50%" stop-color="#051c2c" stop-opacity="0.35"/>
      <stop offset="100%" stop-color="#051c2c" stop-opacity="0"/>
    </radialGradient>
  </defs>
  <rect width="800" height="520" fill="#051c2c"/>
  <circle cx="106.1" cy="128.0" r="59.75175532250138" fill="#FFB089" opacity="0.073"/>
  <circle cx="332.6" cy="445.5" r="58.483770506909245" fill="#FFB089" opacity="0.060"/>
  <circle cx="483.6" cy="226.1" r="59.18361446456124" fill="#FFB089" opacity="0.046"/>
  <circle cx="232.5" cy="331.3" r="45.709193139778804" fill="#FF8A5B" opacity="0.050"/>
  <circle cx="520.2" cy="176.0" r="45.808859813592704" fill="#FF6B3D" opacity="0.030"/>
  <circle cx="484.8" cy="286.5" r="34.99906244622942" fill="#FFB089" opacity="0.041"/>
  <line x1="511.5" y1="13.0" x2="407.6" y2="47.3" stroke="#4d7fff" stroke-width="1" opacity="0.07"/>
  <line x1="511.5" y1="13.0" x2="406.1" y2="55.3" stroke="#4d7fff" stroke-width="1" opacity="0.06"/>
  <line x1="511.5" y1="13.0" x2="487.2" y2="79.5" stroke="#4d7fff" stroke-width="1" opacity="0.15"/>
  <line x1="511.5" y1="13.0" x2="461.0" y2="126.4" stroke="#4d7fff" stroke-width="1" opacity="0.03"/>
  <line x1="511.5" y1="13.0" x2="640.5" y2="56.8" stroke="#4d7fff" stroke-width="1" opacity="0.01"/>
  <line x1="589.2" y1="351.9" x2="471.4" y2="420.9" stroke="#4d7fff" stroke-width="1" opacity="0.01"/>
  <line x1="589.2" y1="351.9" x2="461.9" y2="366.4" stroke="#4d7fff" stroke-width="1" opacity="0.03"/>
  <line x1="589.2" y1="351.9" x2="561.5" y2="355.4" stroke="#4d7fff" stroke-width="1" opacity="0.24"/>
  <line x1="589.2" y1="351.9" x2="502.0" y2="411.9" stroke="#4d7fff" stroke-width="1" opacity="0.07"/>
  <line x1="589.2" y1="351.9" x2="600.7" y2="399.7" stroke="#4d7fff" stroke-width="1" opacity="0.19"/>
  <line x1="589.2" y1="351.9" x2="703.0" y2="432.5" stroke="#4d7fff" stroke-width="1" opacity="0.00"/>
  <line x1="589.2" y1="351.9" x2="529.5" y2="253.1" stroke="#4d7fff" stroke-width="1" opacity="0.05"/>
  <line x1="25.4" y1="48.7" x2="63.0" y2="152.5" stroke="#4d7fff" stroke-width="1" opacity="0.06"/>
  <line x1="25.4" y1="48.7" x2="114.3" y2="72.6" stroke="#4d7fff" stroke-width="1" opacity="0.10"/>
  <line x1="25.4" y1="48.7" x2="126.5" y2="1.7" stroke="#4d7fff" stroke-width="1" opacity="0.06"/>
  <line x1="25.4" y1="48.7" x2="96.8" y2="116.8" stroke="#4d7fff" stroke-width="1" opacity="0.09"/>
  <line x1="25.4" y1="48.7" x2="112.1" y2="95.4" stroke="#4d7fff" stroke-width="1" opacity="0.09"/>
  <line x1="449.0" y1="372.3" x2="471.4" y2="420.9" stroke="#4d7fff" stroke-width="1" opacity="0.18"/>
  <line x1="449.0" y1="372.3" x2="461.9" y2="366.4" stroke="#4d7fff" stroke-width="1" opacity="0.22"/>
  <line x1="449.0" y1="372.3" x2="561.5" y2="355.4" stroke="#4d7fff" stroke-width="1" opacity="0.06"/>
  <line x1="449.0" y1="372.3" x2="342.7" y2="303.4" stroke="#4d7fff" stroke-width="1" opacity="0.01"/>
  <line x1="449.0" y1="372.3" x2="502.0" y2="411.9" stroke="#4d7fff" stroke-width="1" opacity="0.16"/>
  <line x1="449.0" y1="372.3" x2="354.5" y2="447.9" stroke="#4d7fff" stroke-width="1" opacity="0.04"/>
  <line x1="449.0" y1="372.3" x2="385.1" y2="449.6" stroke="#4d7fff" stroke-width="1" opacity="0.09"/>
  <line x1="449.0" y1="372.3" x2="463.3" y2="281.9" stroke="#4d7fff" stroke-width="1" opacity="0.06"/>
  <line x1="449.0" y1="372.3" x2="381.4" y2="478.1" stroke="#4d7fff" stroke-width="1" opacity="0.03"/>
  <line x1="471.4" y1="420.9" x2="461.9" y2="366.4" stroke="#4d7fff" stroke-width="1" opacity="0.18"/>
  <line x1="471.4" y1="420.9" x2="561.5" y2="355.4" stroke="#4d7fff" stroke-width="1" opacity="0.06"/>
  <line x1="471.4" y1="420.9" x2="502.0" y2="411.9" stroke="#4d7fff" stroke-width="1" opacity="0.23"/>
  <line x1="471.4" y1="420.9" x2="600.7" y2="399.7" stroke="#4d7fff" stroke-width="1" opacity="0.02"/>
  <line x1="471.4" y1="420.9" x2="354.5" y2="447.9" stroke="#4d7fff" stroke-width="1" opacity="0.04"/>
  <line x1="471.4" y1="420.9" x2="385.1" y2="449.6" stroke="#4d7fff" stroke-width="1" opacity="0.11"/>
  <line x1="471.4" y1="420.9" x2="463.3" y2="281.9" stroke="#4d7fff" stroke-width="1" opacity="0.00"/>
  <line x1="471.4" y1="420.9" x2="381.4" y2="478.1" stroke="#4d7fff" stroke-width="1" opacity="0.07"/>
  <line x1="558.5" y1="176.9" x2="508.5" y2="189.7" stroke="#4d7fff" stroke-width="1" opacity="0.19"/>
  <line x1="558.5" y1="176.9" x2="644.0" y2="208.6" stroke="#4d7fff" stroke-width="1" opacity="0.10"/>
  <line x1="558.5" y1="176.9" x2="487.2" y2="79.5" stroke="#4d7fff" stroke-width="1" opacity="0.04"/>
  <line x1="558.5" y1="176.9" x2="461.0" y2="126.4" stroke="#4d7fff" stroke-width="1" opacity="0.06"/>
  <line x1="558.5" y1="176.9" x2="529.5" y2="253.1" stroke="#4d7fff" stroke-width="1" opacity="0.13"/>
  <line x1="81.8" y1="197.6" x2="63.0" y2="152.5" stroke="#4d7fff" stroke-width="1" opacity="0.20"/>
  <line x1="81.8" y1="197.6" x2="175.7" y2="168.6" stroke="#4d7fff" stroke-width="1" opacity="0.09"/>
  <line x1="81.8" y1="197.6" x2="114.3" y2="72.6" stroke="#4d7fff" stroke-width="1" opacity="0.02"/>
  <line x1="81.8" y1="197.6" x2="96.8" y2="116.8" stroke="#4d7fff" stroke-width="1" opacity="0.12"/>
  <line x1="81.8" y1="197.6" x2="184.1" y2="114.5" stroke="#4d7fff" stroke-width="1" opacity="0.02"/>
  <line x1="81.8" y1="197.6" x2="112.1" y2="95.4" stroke="#4d7fff" stroke-width="1" opacity="0.07"/>
  <line x1="211.6" y1="22.6" x2="114.3" y2="72.6" stroke="#4d7fff" stroke-width="1" opacity="0.07"/>
  <line x1="211.6" y1="22.6" x2="126.5" y2="1.7" stroke="#4d7fff" stroke-width="1" opacity="0.11"/>
  <line x1="211.6" y1="22.6" x2="184.1" y2="114.5" stroke="#4d7fff" stroke-width="1" opacity="0.09"/>
  <line x1="211.6" y1="22.6" x2="112.1" y2="95.4" stroke="#4d7fff" stroke-width="1" opacity="0.04"/>
  <line x1="63.0" y1="152.5" x2="175.7" y2="168.6" stroke="#4d7fff" stroke-width="1" opacity="0.06"/>
  <line x1="63.0" y1="152.5" x2="114.3" y2="72.6" stroke="#4d7fff" stroke-width="1" opacity="0.10"/>
  <line x1="63.0" y1="152.5" x2="96.8" y2="116.8" stroke="#4d7fff" stroke-width="1" opacity="0.19"/>
  <line x1="63.0" y1="152.5" x2="184.1" y2="114.5" stroke="#4d7fff" stroke-width="1" opacity="0.03"/>
  <line x1="63.0" y1="152.5" x2="112.1" y2="95.4" stroke="#4d7fff" stroke-width="1" opacity="0.14"/>
  <line x1="461.9" y1="366.4" x2="561.5" y2="355.4" stroke="#4d7fff" stroke-width="1" opacity="0.09"/>
  <line x1="461.9" y1="366.4" x2="342.7" y2="303.4" stroke="#4d7fff" stroke-width="1" opacity="0.01"/>
  <line x1="461.9" y1="366.4" x2="502.0" y2="411.9" stroke="#4d7fff" stroke-width="1" opacity="0.17"/>
  <line x1="461.9" y1="366.4" x2="354.5" y2="447.9" stroke="#4d7fff" stroke-width="1" opacity="0.01"/>
  <line x1="461.9" y1="366.4" x2="385.1" y2="449.6" stroke="#4d7fff" stroke-width="1" opacity="0.06"/>
  <line x1="461.9" y1="366.4" x2="529.5" y2="253.1" stroke="#4d7fff" stroke-width="1" opacity="0.01"/>
  <line x1="461.9" y1="366.4" x2="463.3" y2="281.9" stroke="#4d7fff" stroke-width="1" opacity="0.07"/>
  <line x1="461.9" y1="366.4" x2="381.4" y2="478.1" stroke="#4d7fff" stroke-width="1" opacity="0.01"/>
  <line x1="788.2" y1="444.8" x2="703.0" y2="432.5" stroke="#4d7fff" stroke-width="1" opacity="0.12"/>
  <line x1="788.2" y1="444.8" x2="702.4" y2="492.4" stroke="#4d7fff" stroke-width="1" opacity="0.09"/>
  <line x1="788.2" y1="444.8" x2="771.5" y2="483.0" stroke="#4d7fff" stroke-width="1" opacity="0.21"/>
  <line x1="788.2" y1="444.8" x2="796.1" y2="337.9" stroke="#4d7fff" stroke-width="1" opacity="0.07"/>
  <line x1="788.2" y1="444.8" x2="668.8" y2="503.9" stroke="#4d7fff" stroke-width="1" opacity="0.01"/>
  <line x1="508.5" y1="189.7" x2="427.3" y2="127.3" stroke="#4d7fff" stroke-width="1" opacity="0.07"/>
  <line x1="508.5" y1="189.7" x2="644.0" y2="208.6" stroke="#4d7fff" stroke-width="1" opacity="0.01"/>
  <line x1="508.5" y1="189.7" x2="487.2" y2="79.5" stroke="#4d7fff" stroke-width="1" opacity="0.06"/>
  <line x1="508.5" y1="189.7" x2="461.0" y2="126.4" stroke="#4d7fff" stroke-width="1" opacity="0.12"/>
  <line x1="508.5" y1="189.7" x2="529.5" y2="253.1" stroke="#4d7fff" stroke-width="1" opacity="0.13"/>
  <line x1="508.5" y1="189.7" x2="463.3" y2="281.9" stroke="#4d7fff" stroke-width="1" opacity="0.05"/>
  <line x1="561.5" y1="355.4" x2="502.0" y2="411.9" stroke="#4d7fff" stroke-width="1" opacity="0.12"/>
  <line x1="561.5" y1="355.4" x2="600.7" y2="399.7" stroke="#4d7fff" stroke-width="1" opacity="0.17"/>
  <line x1="561.5" y1="355.4" x2="529.5" y2="253.1" stroke="#4d7fff" stroke-width="1" opacity="0.07"/>
  <line x1="561.5" y1="355.4" x2="463.3" y2="281.9" stroke="#4d7fff" stroke-width="1" opacity="0.03"/>
  <line x1="427.3" y1="127.3" x2="407.6" y2="47.3" stroke="#4d7fff" stroke-width="1" opacity="0.12"/>
  <line x1="427.3" y1="127.3" x2="406.1" y2="55.3" stroke="#4d7fff" stroke-width="1" opacity="0.14"/>
  <line x1="427.3" y1="127.3" x2="487.2" y2="79.5" stroke="#4d7fff" stroke-width="1" opacity="0.14"/>
  <line x1="427.3" y1="127.3" x2="461.0" y2="126.4" stroke="#4d7fff" stroke-width="1" opacity="0.21"/>
  <line x1="175.7" y1="168.6" x2="114.3" y2="72.6" stroke="#4d7fff" stroke-width="1" opacity="0.06"/>
  <line x1="175.7" y1="168.6" x2="96.8" y2="116.8" stroke="#4d7fff" stroke-width="1" opacity="0.10"/>
  <line x1="175.7" y1="168.6" x2="184.1" y2="114.5" stroke="#4d7fff" stroke-width="1" opacity="0.18"/>
  <line x1="175.7" y1="168.6" x2="222.8" y2="252.4" stroke="#4d7fff" stroke-width="1" opacity="0.09"/>
  <line x1="175.7" y1="168.6" x2="112.1" y2="95.4" stroke="#4d7fff" stroke-width="1" opacity="0.09"/>
  <line x1="644.0" y1="208.6" x2="701.1" y2="163.6" stroke="#4d7fff" stroke-width="1" opacity="0.14"/>
  <line x1="644.0" y1="208.6" x2="734.8" y2="311.5" stroke="#4d7fff" stroke-width="1" opacity="0.01"/>
  <line x1="644.0" y1="208.6" x2="529.5" y2="253.1" stroke="#4d7fff" stroke-width="1" opacity="0.04"/>
  <line x1="701.1" y1="163.6" x2="782.4" y2="277.0" stroke="#4d7fff" stroke-width="1" opacity="0.00"/>
  <line x1="701.1" y1="163.6" x2="757.5" y2="85.9" stroke="#4d7fff" stroke-width="1" opacity="0.09"/>
  <line x1="701.1" y1="163.6" x2="691.1" y2="28.2" stroke="#4d7fff" stroke-width="1" opacity="0.01"/>
  <line x1="701.1" y1="163.6" x2="640.5" y2="56.8" stroke="#4d7fff" stroke-width="1" opacity="0.04"/>
  <line x1="701.1" y1="163.6" x2="788.2" y2="137.9" stroke="#4d7fff" stroke-width="1" opacity="0.11"/>
  <line x1="114.3" y1="72.6" x2="126.5" y2="1.7" stroke="#4d7fff" stroke-width="1" opacity="0.15"/>
  <line x1="114.3" y1="72.6" x2="96.8" y2="116.8" stroke="#4d7fff" stroke-width="1" opacity="0.20"/>
  <line x1="114.3" y1="72.6" x2="184.1" y2="114.5" stroke="#4d7fff" stroke-width="1" opacity="0.13"/>
  <line x1="114.3" y1="72.6" x2="112.1" y2="95.4" stroke="#4d7fff" stroke-width="1" opacity="0.25"/>
  <line x1="342.7" y1="303.4" x2="222.8" y2="252.4" stroke="#4d7fff" stroke-width="1" opacity="0.02"/>
  <line x1="342.7" y1="303.4" x2="463.3" y2="281.9" stroke="#4d7fff" stroke-width="1" opacity="0.01"/>
  <line x1="407.6" y1="47.3" x2="406.1" y2="55.3" stroke="#4d7fff" stroke-width="1" opacity="0.28"/>
  <line x1="407.6" y1="47.3" x2="487.2" y2="79.5" stroke="#4d7fff" stroke-width="1" opacity="0.12"/>
  <line x1="407.6" y1="47.3" x2="461.0" y2="126.4" stroke="#4d7fff" stroke-width="1" opacity="0.10"/>
  <line x1="502.0" y1="411.9" x2="600.7" y2="399.7" stroke="#4d7fff" stroke-width="1" opacity="0.09"/>
  <line x1="502.0" y1="411.9" x2="385.1" y2="449.6" stroke="#4d7fff" stroke-width="1" opacity="0.04"/>
  <line x1="502.0" y1="411.9" x2="463.3" y2="281.9" stroke="#4d7fff" stroke-width="1" opacity="0.01"/>
  <line x1="502.0" y1="411.9" x2="381.4" y2="478.1" stroke="#4d7fff" stroke-width="1" opacity="0.01"/>
  <line x1="305.3" y1="518.0" x2="183.2" y2="470.8" stroke="#4d7fff" stroke-width="1" opacity="0.02"/>
  <line x1="305.3" y1="518.0" x2="354.5" y2="447.9" stroke="#4d7fff" stroke-width="1" opacity="0.12"/>
  <line x1="305.3" y1="518.0" x2="385.1" y2="449.6" stroke="#4d7fff" stroke-width="1" opacity="0.07"/>
  <line x1="305.3" y1="518.0" x2="381.4" y2="478.1" stroke="#4d7fff" stroke-width="1" opacity="0.12"/>
  <line x1="688.6" y1="6.0" x2="757.5" y2="85.9" stroke="#4d7fff" stroke-width="1" opacity="0.07"/>
  <line x1="688.6" y1="6.0" x2="691.1" y2="28.2" stroke="#4d7fff" stroke-width="1" opacity="0.25"/>
  <line x1="688.6" y1="6.0" x2="640.5" y2="56.8" stroke="#4d7fff" stroke-width="1" opacity="0.15"/>
  <line x1="600.7" y1="399.7" x2="703.0" y2="432.5" stroke="#4d7fff" stroke-width="1" opacity="0.07"/>
  <line x1="600.7" y1="399.7" x2="702.4" y2="492.4" stroke="#4d7fff" stroke-width="1" opacity="0.01"/>
  <line x1="600.7" y1="399.7" x2="668.8" y2="503.9" stroke="#4d7fff" stroke-width="1" opacity="0.03"/>
  <line x1="126.5" y1="1.7" x2="96.8" y2="116.8" stroke="#4d7fff" stroke-width="1" opacity="0.05"/>
  <line x1="126.5" y1="1.7" x2="184.1" y2="114.5" stroke="#4d7fff" stroke-width="1" opacity="0.03"/>
  <line x1="126.5" y1="1.7" x2="112.1" y2="95.4" stroke="#4d7fff" stroke-width="1" opacity="0.10"/>
  <line x1="406.1" y1="55.3" x2="487.2" y2="79.5" stroke="#4d7fff" stroke-width="1" opacity="0.12"/>
  <line x1="406.1" y1="55.3" x2="461.0" y2="126.4" stroke="#4d7fff" stroke-width="1" opacity="0.11"/>
  <line x1="487.2" y1="79.5" x2="461.0" y2="126.4" stroke="#4d7fff" stroke-width="1" opacity="0.18"/>
  <line x1="734.8" y1="311.5" x2="703.0" y2="432.5" stroke="#4d7fff" stroke-width="1" opacity="0.03"/>
  <line x1="734.8" y1="311.5" x2="782.4" y2="277.0" stroke="#4d7fff" stroke-width="1" opacity="0.17"/>
  <line x1="734.8" y1="311.5" x2="796.1" y2="337.9" stroke="#4d7fff" stroke-width="1" opacity="0.16"/>
  <line x1="703.0" y1="432.5" x2="702.4" y2="492.4" stroke="#4d7fff" stroke-width="1" opacity="0.17"/>
  <line x1="703.0" y1="432.5" x2="771.5" y2="483.0" stroke="#4d7fff" stroke-width="1" opacity="0.12"/>
  <line x1="703.0" y1="432.5" x2="796.1" y2="337.9" stroke="#4d7fff" stroke-width="1" opacity="0.02"/>
  <line x1="703.0" y1="432.5" x2="668.8" y2="503.9" stroke="#4d7fff" stroke-width="1" opacity="0.13"/>
  <line x1="702.4" y1="492.4" x2="771.5" y2="483.0" stroke="#4d7fff" stroke-width="1" opacity="0.15"/>
  <line x1="702.4" y1="492.4" x2="668.8" y2="503.9" stroke="#4d7fff" stroke-width="1" opacity="0.22"/>
  <line x1="782.4" y1="277.0" x2="796.1" y2="337.9" stroke="#4d7fff" stroke-width="1" opacity="0.17"/>
  <line x1="782.4" y1="277.0" x2="788.2" y2="137.9" stroke="#4d7fff" stroke-width="1" opacity="0.00"/>
  <line x1="757.5" y1="85.9" x2="691.1" y2="28.2" stroke="#4d7fff" stroke-width="1" opacity="0.11"/>
  <line x1="757.5" y1="85.9" x2="640.5" y2="56.8" stroke="#4d7fff" stroke-width="1" opacity="0.04"/>
  <line x1="757.5" y1="85.9" x2="788.2" y2="137.9" stroke="#4d7fff" stroke-width="1" opacity="0.17"/>
  <line x1="771.5" y1="483.0" x2="668.8" y2="503.9" stroke="#4d7fff" stroke-width="1" opacity="0.08"/>
  <line x1="96.8" y1="116.8" x2="184.1" y2="114.5" stroke="#4d7fff" stroke-width="1" opacity="0.11"/>
  <line x1="96.8" y1="116.8" x2="112.1" y2="95.4" stroke="#4d7fff" stroke-width="1" opacity="0.24"/>
  <line x1="184.1" y1="114.5" x2="112.1" y2="95.4" stroke="#4d7fff" stroke-width="1" opacity="0.14"/>
  <line x1="691.1" y1="28.2" x2="640.5" y2="56.8" stroke="#4d7fff" stroke-width="1" opacity="0.18"/>
  <line x1="354.5" y1="447.9" x2="385.1" y2="449.6" stroke="#4d7fff" stroke-width="1" opacity="0.23"/>
  <line x1="354.5" y1="447.9" x2="381.4" y2="478.1" stroke="#4d7fff" stroke-width="1" opacity="0.21"/>
  <line x1="385.1" y1="449.6" x2="381.4" y2="478.1" stroke="#4d7fff" stroke-width="1" opacity="0.24"/>
  <line x1="529.5" y1="253.1" x2="463.3" y2="281.9" stroke="#4d7fff" stroke-width="1" opacity="0.09"/>
  <circle cx="511.5" cy="13.0" r="3" fill="#FF8A5B" opacity="0.36"/>
  <circle cx="589.2" cy="351.9" r="4" fill="#2251ff" opacity="0.29" filter="url(#glow)"/>
  <circle cx="25.4" cy="48.7" r="2" fill="#FF6B3D" opacity="0.48"/>
  <circle cx="449.0" cy="372.3" r="4" fill="#2251ff" opacity="0.44"/>
  <circle cx="471.4" cy="420.9" r="2" fill="#FF8A5B" opacity="0.59"/>
  <circle cx="558.5" cy="176.9" r="2" fill="#FFB089" opacity="0.35"/>
  <circle cx="81.8" cy="197.6" r="3" fill="#4d7fff" opacity="0.63"/>
  <circle cx="211.6" cy="22.6" r="3" fill="#2251ff" opacity="0.49"/>
  <circle cx="63.0" cy="152.5" r="4" fill="#FFB089" opacity="0.65"/>
  <circle cx="461.9" cy="366.4" r="2" fill="#FFB089" opacity="0.55"/>
  <circle cx="788.2" cy="444.8" r="2" fill="#2251ff" opacity="0.42"/>
  <circle cx="508.5" cy="189.7" r="3" fill="#FFB089" opacity="0.41"/>
  <circle cx="561.5" cy="355.4" r="2" fill="#FF8A5B" opacity="0.52"/>
  <circle cx="427.3" cy="127.3" r="3" fill="#4d7fff" opacity="0.42"/>
  <circle cx="175.7" cy="168.6" r="2" fill="#FF6B3D" opacity="0.35"/>
  <circle cx="644.0" cy="208.6" r="2" fill="#4d7fff" opacity="0.34"/>
  <circle cx="701.1" cy="163.6" r="3" fill="#2251ff" opacity="0.43"/>
  <circle cx="114.3" cy="72.6" r="4" fill="#4d7fff" opacity="0.49"/>
  <circle cx="342.7" cy="303.4" r="3" fill="#FF8A5B" opacity="0.35"/>
  <circle cx="407.6" cy="47.3" r="2" fill="#FF8A5B" opacity="0.64"/>
  <circle cx="502.0" cy="411.9" r="3" fill="#2251ff" opacity="0.52"/>
  <circle cx="305.3" cy="518.0" r="4" fill="#4d7fff" opacity="0.36"/>
  <circle cx="688.6" cy="6.0" r="2" fill="#4d7fff" opacity="0.56"/>
  <circle cx="600.7" cy="399.7" r="3" fill="#2251ff" opacity="0.30"/>
  <circle cx="126.5" cy="1.7" r="3" fill="#FF8A5B" opacity="0.69"/>
  <circle cx="406.1" cy="55.3" r="3" fill="#4d7fff" opacity="0.63"/>
  <circle cx="487.2" cy="79.5" r="2" fill="#4d7fff" opacity="0.49"/>
  <circle cx="734.8" cy="311.5" r="3" fill="#FFB089" opacity="0.26"/>
  <circle cx="703.0" cy="432.5" r="3" fill="#FF8A5B" opacity="0.36"/>
  <circle cx="702.4" cy="492.4" r="2" fill="#FF6B3D" opacity="0.58"/>
  <circle cx="782.4" cy="277.0" r="2" fill="#2251ff" opacity="0.31"/>
  <circle cx="757.5" cy="85.9" r="4" fill="#2251ff" opacity="0.64" filter="url(#glow)"/>
  <circle cx="771.5" cy="483.0" r="2" fill="#2251ff" opacity="0.57"/>
  <circle cx="796.1" cy="337.9" r="3" fill="#2251ff" opacity="0.65"/>
  <circle cx="96.8" cy="116.8" r="3" fill="#4d7fff" opacity="0.26"/>
  <circle cx="184.1" cy="114.5" r="2" fill="#FF6B3D" opacity="0.57"/>
  <circle cx="183.2" cy="470.8" r="3" fill="#FF8A5B" opacity="0.28"/>
  <circle cx="222.8" cy="252.4" r="4" fill="#4d7fff" opacity="0.31"/>
  <circle cx="461.0" cy="126.4" r="3" fill="#FF8A5B" opacity="0.61"/>
  <circle cx="75.5" cy="342.7" r="3" fill="#2251ff" opacity="0.44"/>
  <circle cx="691.1" cy="28.2" r="2" fill="#FFB089" opacity="0.28"/>
  <circle cx="640.5" cy="56.8" r="2" fill="#2251ff" opacity="0.34"/>
  <circle cx="112.1" cy="95.4" r="3" fill="#FF6B3D" opacity="0.36"/>
  <circle cx="354.5" cy="447.9" r="4" fill="#4d7fff" opacity="0.29"/>
  <circle cx="668.8" cy="503.9" r="2" fill="#2251ff" opacity="0.32"/>
  <circle cx="385.1" cy="449.6" r="2" fill="#FF6B3D" opacity="0.32"/>
  <circle cx="788.2" cy="137.9" r="3" fill="#4d7fff" opacity="0.38"/>
  <circle cx="529.5" cy="253.1" r="2" fill="#FF6B3D" opacity="0.38"/>
  <circle cx="463.3" cy="281.9" r="3" fill="#4d7fff" opacity="0.28"/>
  <circle cx="381.4" cy="478.1" r="4" fill="#4d7fff" opacity="0.32"/>
  <rect width="800" height="520" fill="url(#centerClear)"/>
  <linearGradient id="btmFade" x1="0" y1="0" x2="0" y2="1">
    <stop offset="0%" stop-color="#051c2c" stop-opacity="0"/>
    <stop offset="100%" stop-color="#051c2c" stop-opacity="0.6"/>
  </linearGradient>
  <rect x="0" y="440" width="800" height="80" fill="url(#btmFade)"/>
</svg>