<?xml version="1.0" encoding="UTF-8"?>
<svg width="1045" height="88" viewBox="0 0 1045 88" fill="currentColor" xmlns="http://www.w3.org/2000/svg" aria-label="Chain Foundry"><path d="M71.543 14.6484L71.0156 14.8828C67.9688 12.0703 64.2969 9.82422 60 8.14453C55.7422 6.46484 51.0547 5.625 45.9375 5.625C41.0156 5.625 36.5039 6.40625 32.4023 7.96875C28.3008 9.49219 24.7656 11.7188 21.7969 14.6484C18.8672 17.5781 16.582 21.1719 14.9414 25.4297C13.3008 29.6875 12.4805 34.5312 12.4805 39.9609C12.4805 45.9375 13.2617 51.5234 14.8242 56.7188C16.3867 61.875 18.7109 66.3477 21.7969 70.1367C24.8828 73.9258 28.7305 76.9141 33.3398 79.1016C37.9883 81.25 43.3984 82.3242 49.5703 82.3242C51.7969 82.3242 54.0234 82.0898 56.25 81.6211C58.4766 81.1523 60.6055 80.4688 62.6367 79.5703C64.707 78.6328 66.6406 77.5195 68.4375 76.2305C70.2734 74.9023 71.9336 73.3984 73.418 71.7188L74.0625 72.1289L69.375 84.082C66.4453 85.2148 63.2031 86.0742 59.6484 86.6602C56.1328 87.2852 52.5781 87.5977 48.9844 87.5977C41.7578 87.5977 35.1367 86.5625 29.1211 84.4922C23.1445 82.3828 17.9883 79.4141 13.6523 75.5859C9.35547 71.7578 5.99609 67.168 3.57422 61.8164C1.19141 56.4258 0 50.4492 0 43.8867C0 40.1758 0.46875 36.5234 1.40625 32.9297C2.38281 29.3359 3.78906 25.918 5.625 22.6758C7.46094 19.4336 9.72656 16.4648 12.4219 13.7695C15.1172 11.0352 18.1836 8.67188 21.6211 6.67969C25.0977 4.6875 28.9062 3.14453 33.0469 2.05078C37.2266 0.917969 41.7383 0.351562 46.582 0.351562C54.1211 0.351562 61.1133 1.50391 67.5586 3.80859L71.543 14.6484ZM150.11 45.5859C148.548 45.5469 146.595 45.5273 144.251 45.5273C141.907 45.4883 139.348 45.4492 136.575 45.4102C133.841 45.3711 130.97 45.3516 127.962 45.3516C124.993 45.3125 122.083 45.293 119.231 45.293C116.38 45.2539 113.665 45.2539 111.087 45.293C108.509 45.332 106.262 45.3906 104.348 45.4688V62.8711C104.348 66.1914 104.387 69.1016 104.466 71.6016C104.583 74.0625 104.7 76.1914 104.817 77.9883C104.973 79.7852 105.149 81.2891 105.345 82.5C105.579 83.7109 105.813 84.7266 106.048 85.5469V85.7812H91.9852V85.5469C92.2195 84.7266 92.4344 83.7109 92.6297 82.5C92.8641 81.2891 93.0594 79.7852 93.2156 77.9883C93.3719 76.1914 93.4891 74.0625 93.5672 71.6016C93.6453 69.1016 93.6844 66.1914 93.6844 62.8711V24.7266C93.6844 21.4062 93.6453 18.5156 93.5672 16.0547C93.4891 13.5547 93.3719 11.4063 93.2156 9.60938C93.0594 7.77344 92.8641 6.25 92.6297 5.03906C92.4344 3.82812 92.2195 2.8125 91.9852 1.99219V1.75781H106.048V1.99219C105.813 2.8125 105.579 3.82812 105.345 5.03906C105.149 6.25 104.973 7.77344 104.817 9.60938C104.7 11.4063 104.583 13.5547 104.466 16.0547C104.387 18.5156 104.348 21.4062 104.348 24.7266V39.7266C106.38 39.8047 108.684 39.8633 111.262 39.9023C113.841 39.9023 116.536 39.9023 119.348 39.9023C122.161 39.8633 125.012 39.8242 127.903 39.7852C130.833 39.7461 133.645 39.707 136.341 39.668C139.075 39.5898 141.614 39.5117 143.958 39.4336C146.341 39.3555 148.391 39.2773 150.11 39.1992V24.7266C150.11 21.4062 150.052 18.5156 149.934 16.0547C149.856 13.5547 149.739 11.4063 149.583 9.60938C149.466 7.77344 149.29 6.25 149.055 5.03906C148.86 3.82812 148.645 2.8125 148.411 1.99219V1.75781H162.473V1.99219C162.239 2.8125 162.005 3.82812 161.77 5.03906C161.575 6.25 161.399 7.77344 161.243 9.60938C161.087 11.4063 160.97 13.5547 160.891 16.0547C160.813 18.5156 160.774 21.4062 160.774 24.7266V62.8711C160.774 66.1914 160.813 69.1016 160.891 71.6016C160.97 74.0625 161.087 76.1914 161.243 77.9883C161.399 79.7852 161.575 81.2891 161.77 82.5C162.005 83.7109 162.239 84.7266 162.473 85.5469V85.7812H148.411V85.5469C148.645 84.7266 148.86 83.7109 149.055 82.5C149.29 81.2891 149.466 79.7852 149.583 77.9883C149.739 76.1914 149.856 74.0625 149.934 71.6016C150.052 69.1016 150.11 66.1914 150.11 62.8711V45.5859ZM244.615 85.7812V85.5469C244.693 85.3516 244.752 85.0586 244.791 84.668C244.83 84.2773 244.849 83.9258 244.849 83.6133C244.849 82.4023 244.673 81.0742 244.322 79.6289C244.009 78.1445 243.384 76.3086 242.447 74.1211L235.357 58.1836C233.17 58.1055 230.259 58.0664 226.627 58.0664C222.994 58.0664 219.068 58.0664 214.849 58.0664C211.763 58.0664 208.775 58.0664 205.884 58.0664C203.033 58.0664 200.455 58.1055 198.15 58.1836L191.412 73.6523C190.826 75.0977 190.201 76.6797 189.537 78.3984C188.873 80.1172 188.541 81.8555 188.541 83.6133C188.541 84.1211 188.58 84.5508 188.658 84.9023C188.736 85.2148 188.814 85.4297 188.892 85.5469V85.7812H176.939V85.5469C177.642 84.8047 178.521 83.4961 179.576 81.6211C180.63 79.707 181.783 77.3242 183.033 74.4727L216.607 0H221.295L253.111 71.6016C253.853 73.2812 254.615 74.9219 255.396 76.5234C256.216 78.0859 256.978 79.4922 257.681 80.7422C258.384 81.9922 259.009 83.0469 259.556 83.9062C260.103 84.7656 260.474 85.3125 260.67 85.5469V85.7812H244.615ZM206.646 53.0273C208.912 53.0273 211.236 53.0273 213.619 53.0273C216.002 52.9883 218.326 52.9688 220.591 52.9688C222.896 52.9297 225.103 52.9102 227.212 52.9102C229.322 52.8711 231.236 52.832 232.955 52.793L216.49 15.5859L200.318 53.0273H206.646ZM275.663 85.5469C275.897 84.7266 276.112 83.7109 276.307 82.5C276.502 81.2891 276.678 79.7852 276.834 77.9883C276.991 76.1914 277.108 74.0625 277.186 71.6016C277.264 69.1016 277.303 66.1914 277.303 62.8711V24.7266C277.303 21.4062 277.264 18.5156 277.186 16.0547C277.108 13.5547 276.991 11.4063 276.834 9.60938C276.678 7.77344 276.502 6.25 276.307 5.03906C276.112 3.82812 275.897 2.8125 275.663 1.99219V1.75781H289.666V1.99219C289.432 2.8125 289.198 3.82812 288.963 5.03906C288.768 6.25 288.592 7.77344 288.436 9.60938C288.319 11.4063 288.202 13.5547 288.084 16.0547C288.006 18.5156 287.967 21.4062 287.967 24.7266V62.8711C287.967 66.1914 288.006 69.1016 288.084 71.6016C288.202 74.0625 288.319 76.1914 288.436 77.9883C288.592 79.7852 288.768 81.2891 288.963 82.5C289.198 83.7109 289.432 84.7266 289.666 85.5469V85.7812H275.663V85.5469ZM317.491 1.75781L377.843 65.9766V24.7266C377.843 21.4062 377.804 18.5156 377.726 16.0547C377.648 13.5547 377.53 11.4063 377.374 9.60938C377.218 7.77344 377.023 6.25 376.788 5.03906C376.593 3.82812 376.378 2.8125 376.144 1.99219V1.75781H386.573V1.99219C386.339 2.8125 386.124 3.82812 385.929 5.03906C385.734 6.25 385.558 7.77344 385.402 9.60938C385.245 11.4063 385.128 13.5547 385.05 16.0547C384.972 18.5156 384.933 21.4062 384.933 24.7266V86.9531H382.882L322.53 22.793V62.8711C322.53 66.1914 322.57 69.1016 322.648 71.6016C322.726 74.0625 322.843 76.1914 322.999 77.9883C323.155 79.7852 323.331 81.2891 323.527 82.5C323.722 83.7109 323.937 84.7266 324.171 85.5469V85.7812H313.741V85.5469C313.976 84.7266 314.191 83.7109 314.386 82.5C314.62 81.2891 314.816 79.7852 314.972 77.9883C315.128 76.1914 315.245 74.0625 315.323 71.6016C315.402 69.1016 315.441 66.1914 315.441 62.8711V24.7266C315.441 21.4062 315.402 18.5156 315.323 16.0547C315.245 13.5547 315.128 11.4063 314.972 9.60938C314.816 7.77344 314.62 6.25 314.386 5.03906C314.191 3.82812 313.976 2.8125 313.741 1.99219V1.75781H317.491ZM465.661 62.8711C465.661 66.1914 465.7 69.1016 465.778 71.6016C465.895 74.0625 466.013 76.1914 466.13 77.9883C466.286 79.7852 466.462 81.2891 466.657 82.5C466.891 83.7109 467.126 84.7266 467.36 85.5469V85.7812H453.298V85.5469C453.532 84.7266 453.747 83.7109 453.942 82.5C454.177 81.2891 454.372 79.7852 454.528 77.9883C454.684 76.1914 454.802 74.0625 454.88 71.6016C454.958 69.1016 454.997 66.1914 454.997 62.8711V24.7266C454.997 21.4062 454.958 18.5156 454.88 16.0547C454.802 13.5547 454.684 11.4063 454.528 9.60938C454.372 7.77344 454.177 6.25 453.942 5.03906C453.747 3.82812 453.532 2.8125 453.298 1.99219V1.75781C456.54 1.75781 459.821 1.75781 463.141 1.75781C466.462 1.71875 469.684 1.69922 472.809 1.69922C475.934 1.66016 478.903 1.62109 481.716 1.58203C484.528 1.50391 487.067 1.44531 489.333 1.40625C491.598 1.32813 493.513 1.25 495.075 1.17188C496.638 1.05469 497.751 0.9375 498.415 0.820312L495.544 8.61328C494.255 8.26172 492.751 7.94922 491.032 7.67578C489.548 7.44141 487.731 7.22656 485.583 7.03125C483.473 6.79688 481.032 6.67969 478.259 6.67969C477.321 6.67969 476.149 6.71875 474.743 6.79688C473.337 6.83594 471.95 6.89453 470.583 6.97266C469.02 7.05078 467.38 7.12891 465.661 7.20703V36.7969C469.684 36.7578 473.376 36.6406 476.735 36.4453C480.095 36.25 482.985 36.0547 485.407 35.8594C488.22 35.625 490.759 35.3516 493.024 35.0391L491.266 43.5352C488.337 43.1836 485.368 42.8516 482.36 42.5391C479.782 42.2656 477.009 42.0312 474.04 41.8359C471.071 41.6016 468.278 41.4844 465.661 41.4844V62.8711ZM554.716 0.351562C561.24 0.351562 567.255 1.42578 572.763 3.57422C578.31 5.68359 583.095 8.67188 587.119 12.5391C591.142 16.3672 594.287 20.9766 596.552 26.3672C598.818 31.7578 599.951 37.7148 599.951 44.2383C599.951 47.9492 599.521 51.6016 598.662 55.1953C597.802 58.7891 596.533 62.1875 594.853 65.3906C593.213 68.5938 591.181 71.5625 588.759 74.2969C586.338 76.9922 583.564 79.3359 580.439 81.3281C577.353 83.2812 573.935 84.8047 570.185 85.8984C566.435 87.0312 562.392 87.5977 558.056 87.5977C551.533 87.5977 545.498 86.5625 539.951 84.4922C534.443 82.3828 529.677 79.4141 525.654 75.5859C521.63 71.7578 518.486 67.168 516.22 61.8164C513.955 56.4258 512.822 50.4492 512.822 43.8867C512.822 40.1758 513.252 36.5234 514.111 32.9297C514.97 29.3359 516.22 25.918 517.861 22.6758C519.541 19.4336 521.572 16.4648 523.955 13.7695C526.377 11.0352 529.13 8.67188 532.216 6.67969C535.341 4.6875 538.779 3.14453 542.529 2.05078C546.318 0.917969 550.38 0.351562 554.716 0.351562ZM558.056 82.3242C562.392 82.3242 566.357 81.543 569.951 79.9805C573.545 78.418 576.63 76.1523 579.209 73.1836C581.826 70.2148 583.857 66.6016 585.302 62.3438C586.748 58.0469 587.47 53.1836 587.47 47.7539C587.47 41.7383 586.767 36.1719 585.361 31.0547C583.994 25.8984 581.943 21.4453 579.209 17.6953C576.474 13.9062 573.056 10.957 568.955 8.84766C564.892 6.69922 560.146 5.625 554.716 5.625C550.38 5.625 546.416 6.40625 542.822 7.96875C539.228 9.49219 536.123 11.7188 533.505 14.6484C530.927 17.5781 528.916 21.1719 527.47 25.4297C526.025 29.6875 525.302 34.5312 525.302 39.9609C525.302 45.9375 525.986 51.5234 527.353 56.7188C528.72 61.875 530.771 66.3477 533.505 70.1367C536.24 73.9258 539.658 76.9141 543.759 79.1016C547.861 81.25 552.627 82.3242 558.056 82.3242ZM680.51 24.7266C680.51 21.4062 680.471 18.5156 680.393 16.0547C680.315 13.5547 680.198 11.4063 680.041 9.60938C679.885 7.77344 679.709 6.25 679.514 5.03906C679.319 3.82812 679.104 2.8125 678.87 1.99219V1.75781H689.299V1.99219C689.065 2.8125 688.83 3.82812 688.596 5.03906C688.401 6.25 688.225 7.77344 688.069 9.60938C687.952 11.4063 687.834 13.5547 687.717 16.0547C687.639 18.5156 687.6 21.4062 687.6 24.7266V56.3672C687.6 61.9531 686.799 66.7188 685.198 70.6641C683.596 74.6094 681.37 77.8516 678.518 80.3906C675.666 82.8906 672.248 84.707 668.264 85.8398C664.28 87.0117 659.924 87.5977 655.198 87.5977C650.471 87.5977 646.057 87.0508 641.955 85.957C637.893 84.8633 634.338 83.1055 631.291 80.6836C628.284 78.2227 625.92 75.0586 624.202 71.1914C622.483 67.2852 621.623 62.5391 621.623 56.9531V24.7266C621.623 21.4062 621.584 18.5156 621.506 16.0547C621.428 13.5547 621.311 11.4063 621.155 9.60938C620.998 7.77344 620.803 6.25 620.569 5.03906C620.373 3.82812 620.159 2.8125 619.924 1.99219V1.75781H633.987V1.99219C633.752 2.8125 633.518 3.82812 633.284 5.03906C633.088 6.25 632.912 7.77344 632.756 9.60938C632.6 11.4063 632.483 13.5547 632.405 16.0547C632.327 18.5156 632.287 21.4062 632.287 24.7266V57.5977C632.287 62.2461 632.971 66.0938 634.338 69.1406C635.745 72.1484 637.58 74.5508 639.846 76.3477C642.112 78.1055 644.69 79.3359 647.58 80.0391C650.471 80.7422 653.42 81.0938 656.428 81.0938C659.436 81.0938 662.385 80.7422 665.276 80.0391C668.166 79.3359 670.725 78.1055 672.952 76.3477C675.217 74.5508 677.034 72.1484 678.401 69.1406C679.807 66.0938 680.51 62.2461 680.51 57.5977V24.7266ZM716.07 1.75781L776.421 65.9766V24.7266C776.421 21.4062 776.382 18.5156 776.304 16.0547C776.226 13.5547 776.109 11.4063 775.952 9.60938C775.796 7.77344 775.601 6.25 775.366 5.03906C775.171 3.82812 774.956 2.8125 774.722 1.99219V1.75781H785.152V1.99219C784.917 2.8125 784.702 3.82812 784.507 5.03906C784.312 6.25 784.136 7.77344 783.98 9.60938C783.823 11.4063 783.706 13.5547 783.628 16.0547C783.55 18.5156 783.511 21.4062 783.511 24.7266V86.9531H781.46L721.109 22.793V62.8711C721.109 66.1914 721.148 69.1016 721.226 71.6016C721.304 74.0625 721.421 76.1914 721.577 77.9883C721.734 79.7852 721.909 81.2891 722.105 82.5C722.3 83.7109 722.515 84.7266 722.749 85.5469V85.7812H712.32V85.5469C712.554 84.7266 712.769 83.7109 712.964 82.5C713.198 81.2891 713.394 79.7852 713.55 77.9883C713.706 76.1914 713.823 74.0625 713.902 71.6016C713.98 69.1016 714.019 66.1914 714.019 62.8711V24.7266C714.019 21.4062 713.98 18.5156 713.902 16.0547C713.823 13.5547 713.706 11.4063 713.55 9.60938C713.394 7.77344 713.198 6.25 712.964 5.03906C712.769 3.82812 712.554 2.8125 712.32 1.99219V1.75781H716.07ZM821.531 6.79688C821.453 11.1719 821.375 15.4102 821.297 19.5117C821.258 21.2695 821.219 23.0664 821.18 24.9023C821.18 26.7383 821.16 28.5547 821.121 30.3516C821.121 32.1094 821.102 33.8086 821.062 35.4492C821.062 37.0508 821.062 38.4766 821.062 39.7266C821.062 42.3438 821.082 45.5078 821.121 49.2188C821.16 52.9297 821.199 56.7383 821.238 60.6445C821.316 64.5508 821.414 68.3008 821.531 71.8945C821.648 75.4883 821.785 78.4766 821.941 80.8594C822.488 80.9375 823.211 81.0352 824.109 81.1523C825.047 81.2305 826.023 81.3086 827.039 81.3867C828.055 81.4258 829.051 81.4648 830.027 81.5039C831.004 81.543 831.824 81.5625 832.488 81.5625C835.223 81.5625 838.016 81.3867 840.867 81.0352C843.758 80.6445 846.531 79.9414 849.188 78.9258C851.883 77.9102 854.402 76.5234 856.746 74.7656C859.129 72.9688 861.199 70.6641 862.957 67.8516C864.754 65.0391 866.16 61.6602 867.176 57.7148C868.191 53.7305 868.699 49.043 868.699 43.6523C868.699 37.6758 867.977 32.3633 866.531 27.7148C865.086 23.0273 862.957 19.082 860.145 15.8789C857.371 12.6758 853.914 10.2539 849.773 8.61328C845.672 6.93359 840.945 6.09375 835.594 6.09375C834.539 6.09375 833.348 6.13281 832.02 6.21094C830.691 6.25 829.363 6.30859 828.035 6.38672C826.746 6.42578 825.516 6.50391 824.344 6.62109C823.211 6.69922 822.273 6.75781 821.531 6.79688ZM808.699 1.52344C809.598 1.5625 810.438 1.60156 811.219 1.64062C811.883 1.67969 812.566 1.71875 813.27 1.75781C813.973 1.75781 814.539 1.75781 814.969 1.75781C815.711 1.75781 816.941 1.71875 818.66 1.64062C820.418 1.5625 822.41 1.48437 824.637 1.40625C826.863 1.32813 829.168 1.25 831.551 1.17188C833.973 1.09375 836.238 1.05469 838.348 1.05469C844.012 1.05469 849.402 1.75781 854.52 3.16406C859.637 4.57031 864.129 6.875 867.996 10.0781C871.863 13.2813 874.93 17.4805 877.195 22.6758C879.461 27.8711 880.594 34.2578 880.594 41.8359C880.594 47.2656 879.988 52.1484 878.777 56.4844C877.605 60.8203 875.945 64.6484 873.797 67.9688C871.648 71.2891 869.07 74.1406 866.062 76.5234C863.094 78.8672 859.793 80.8008 856.16 82.3242C852.566 83.8477 848.719 84.9609 844.617 85.6641C840.516 86.3672 836.277 86.7188 831.902 86.7188C830.34 86.7188 828.445 86.6602 826.219 86.543C824.031 86.4648 821.824 86.3672 819.598 86.25C817.371 86.1328 815.262 86.0156 813.27 85.8984C811.316 85.8203 809.793 85.7812 808.699 85.7812V85.5469C808.934 84.7266 809.148 83.7109 809.344 82.5C809.578 81.2891 809.773 79.7852 809.93 77.9883C810.086 76.1914 810.203 74.0625 810.281 71.6016C810.359 69.1016 810.398 66.1914 810.398 62.8711V24.7266C810.398 21.4062 810.359 18.4961 810.281 15.9961C810.203 13.457 810.086 11.2891 809.93 9.49219C809.773 7.65625 809.578 6.11328 809.344 4.86328C809.148 3.61328 808.934 2.57812 808.699 1.75781V1.52344ZM913.927 62.8711C913.927 66.1914 913.966 69.1016 914.044 71.6016C914.161 74.0625 914.278 76.1914 914.395 77.9883C914.552 79.7852 914.727 81.2891 914.923 82.5C915.157 83.7109 915.391 84.7266 915.626 85.5469V85.7812H901.563V85.5469C901.798 84.7266 902.013 83.7109 902.208 82.5C902.442 81.2891 902.618 79.7852 902.735 77.9883C902.891 76.1914 903.009 74.0625 903.087 71.6016C903.204 69.1406 903.263 66.2305 903.263 62.8711V24.7266C903.263 21.4062 903.204 18.5156 903.087 16.0547C903.009 13.5547 902.891 11.4063 902.735 9.60938C902.618 7.8125 902.442 6.30859 902.208 5.09766C902.013 3.84766 901.798 2.8125 901.563 1.99219V1.75781L904.024 1.99219C904.766 2.07031 905.587 2.12891 906.485 2.16797C907.423 2.16797 908.38 2.16797 909.356 2.16797C910.88 2.16797 912.93 1.99219 915.509 1.64062C918.126 1.25 921.446 1.05469 925.47 1.05469C929.22 1.05469 932.677 1.5625 935.841 2.57812C939.044 3.59375 941.817 5.07813 944.161 7.03125C946.505 8.98437 948.321 11.3867 949.61 14.2383C950.938 17.0508 951.602 20.2539 951.602 23.8477C951.602 26.6602 951.231 29.2773 950.489 31.6992C949.786 34.082 948.77 36.25 947.442 38.2031C946.153 40.1562 944.591 41.8945 942.755 43.418C940.919 44.9023 938.868 46.1523 936.602 47.168L957.169 76.0547C958.184 77.5 959.122 78.75 959.981 79.8047C960.88 80.8594 961.72 81.7773 962.501 82.5586C963.321 83.3008 964.102 83.9258 964.845 84.4336C965.587 84.9023 966.348 85.2734 967.13 85.5469V85.7812H950.196C950.079 85.0391 949.688 84.0625 949.024 82.8516C948.399 81.6016 947.657 80.3711 946.798 79.1602L926.055 49.9219C925.157 50 924.259 50.0781 923.36 50.1562C922.462 50.1953 921.544 50.2148 920.606 50.2148C919.513 50.2148 918.399 50.1758 917.266 50.0977C916.173 50.0195 915.059 49.8828 913.927 49.6875V62.8711ZM913.927 45.1172C914.981 45.3516 916.055 45.5273 917.149 45.6445C918.243 45.7227 919.298 45.7617 920.313 45.7617C923.243 45.7617 925.919 45.332 928.341 44.4727C930.763 43.5742 932.813 42.2266 934.493 40.4297C936.212 38.6328 937.54 36.4062 938.477 33.75C939.415 31.0547 939.884 27.9102 939.884 24.3164C939.884 21.3867 939.552 18.7305 938.888 16.3477C938.223 13.9648 937.227 11.9531 935.899 10.3125C934.61 8.63281 932.97 7.34375 930.977 6.44531C928.985 5.50781 926.661 5.03906 924.005 5.03906C921.309 5.03906 919.161 5.17578 917.559 5.44922C915.958 5.72266 914.747 6.01563 913.927 6.32812V45.1172ZM1011.54 45.4688V62.8711C1011.54 66.1914 1011.58 69.1016 1011.65 71.6016C1011.73 74.0625 1011.85 76.1914 1012.01 77.9883C1012.16 79.7852 1012.34 81.2891 1012.53 82.5C1012.77 83.7109 1013 84.7266 1013.24 85.5469V85.7812H999.173V85.5469C999.408 84.7266 999.623 83.7109 999.818 82.5C1000.05 81.2891 1000.23 79.7852 1000.35 77.9883C1000.5 76.1914 1000.62 74.0625 1000.7 71.6016C1000.81 69.1016 1000.87 66.1914 1000.87 62.8711V46.6406L974.681 11.0156C973.783 9.80469 972.884 8.69141 971.986 7.67578C971.127 6.66016 970.306 5.78125 969.525 5.03906C968.744 4.25781 968.041 3.61328 967.416 3.10547C966.791 2.59766 966.302 2.22656 965.951 1.99219V1.75781H983.705C983.705 2.65625 984.076 4.14063 984.818 6.21094C985.599 8.24219 986.986 10.6445 988.978 13.418L1008.2 39.7266L1027.01 12.2461C1027.67 11.2695 1028.33 10.2734 1029 9.25781C1029.66 8.24219 1030.27 7.26562 1030.81 6.32812C1031.36 5.39062 1031.79 4.53125 1032.1 3.75C1032.45 2.96875 1032.63 2.30469 1032.63 1.75781H1044.06V1.99219C1043.2 2.73438 1042.04 3.84766 1040.6 5.33203C1039.15 6.77734 1037.59 8.71094 1035.91 11.1328L1011.54 45.4688Z" fill="currentColor"/></svg>